<svg width="24" height="24" viewBox="0 0 24 24" fill="none" xmlns="http://www.w3.org/2000/svg">
<path d="M1.90903 17C1.90903 14.7909 3.69989 13 5.90904 13H21.1091C21.5509 13 21.9091 13.3582 21.9091 13.8V19C21.9091 21.2092 20.1182 23 17.9091 23H2.70903C2.2672 23 1.90903 22.6419 1.90903 22.2V17Z" fill="#4992FF"/>
<path d="M11.9091 1.8C11.9091 1.35817 12.2672 1 12.7091 1H17.9091C20.1182 1 21.9091 2.79087 21.9091 5.00001V10.2C21.9091 10.6419 21.5509 11 21.1091 11H15.9091C13.6999 11 11.9091 9.20917 11.9091 7.00002V1.8Z" fill="#E37FE6"/>
</svg>
