<svg width="10" height="16" viewBox="0 0 10 16" fill="none" xmlns="http://www.w3.org/2000/svg">
<g clip-path="url(#clip0_62_210)">
<path d="M5 8C5 7.33696 5.26339 6.70107 5.73223 6.23223C6.20107 5.76339 6.83696 5.5 7.5 5.5C8.16304 5.5 8.79893 5.76339 9.26777 6.23223C9.73661 6.70107 10 7.33696 10 8C10 8.66304 9.73661 9.29893 9.26777 9.76777C8.79893 10.2366 8.16304 10.5 7.5 10.5C6.83696 10.5 6.20107 10.2366 5.73223 9.76777C5.26339 9.29893 5 8.66304 5 8V8Z" fill="#1ABCFE"/>
<path d="M0 13C0 12.337 0.263392 11.7011 0.732233 11.2322C1.20107 10.7634 1.83696 10.5 2.5 10.5H5V13C5 13.663 4.73661 14.2989 4.26777 14.7678C3.79893 15.2366 3.16304 15.5 2.5 15.5C1.83696 15.5 1.20107 15.2366 0.732233 14.7678C0.263392 14.2989 0 13.663 0 13H0Z" fill="#0ACF83"/>
<path d="M5 0.5V5.5H7.5C8.16304 5.5 8.79893 5.23661 9.26777 4.76777C9.73661 4.29893 10 3.66304 10 3C10 2.33696 9.73661 1.70107 9.26777 1.23223C8.79893 0.763392 8.16304 0.5 7.5 0.5L5 0.5Z" fill="#FF7262"/>
<path d="M0 3C0 3.66304 0.263392 4.29893 0.732233 4.76777C1.20107 5.23661 1.83696 5.5 2.5 5.5H5V0.5H2.5C1.83696 0.5 1.20107 0.763392 0.732233 1.23223C0.263392 1.70107 0 2.33696 0 3H0Z" fill="#F24E1E"/>
<path d="M0 8C0 8.66304 0.263392 9.29893 0.732233 9.76777C1.20107 10.2366 1.83696 10.5 2.5 10.5H5V5.5H2.5C1.83696 5.5 1.20107 5.76339 0.732233 6.23223C0.263392 6.70107 0 7.33696 0 8H0Z" fill="#A259FF"/>
</g>
<defs>
<clipPath id="clip0_62_210">
<rect width="10" height="15" fill="white" transform="translate(0 0.5)"/>
</clipPath>
</defs>
</svg>
