<svg width="350" height="110" viewBox="0 0 350 110" fill="none" xmlns="http://www.w3.org/2000/svg">
<path d="M164.306 91.3401V57.4428C164.306 55.0048 163.907 52.9184 163.11 51.1837C162.313 49.4021 161.071 48.019 159.383 47.0344C157.742 46.0499 155.609 45.5576 152.983 45.5576C150.733 45.5576 148.787 45.9561 147.146 46.7531C145.505 47.5033 144.239 48.6051 143.348 50.0585C142.458 51.465 142.012 53.1294 142.012 55.0517H121.758C121.758 51.8166 122.508 48.7457 124.009 45.8389C125.509 42.9321 127.689 40.3769 130.549 38.1733C133.409 35.9229 136.808 34.1647 140.746 32.8988C144.731 31.6329 149.185 31 154.108 31C160.016 31 165.267 31.9846 169.861 33.9537C174.456 35.9229 178.066 38.8766 180.692 42.8148C183.364 46.7531 184.7 51.676 184.7 57.5834V90.1446C184.7 94.3173 184.958 97.7398 185.474 100.412C185.99 103.038 186.74 105.335 187.724 107.304V108.5H167.259C166.275 106.437 165.525 103.858 165.009 100.764C164.54 97.6226 164.306 94.4814 164.306 91.3401ZM166.978 62.1546L167.119 73.6178H155.796C153.124 73.6178 150.803 73.9226 148.834 74.5321C146.865 75.1416 145.247 76.0089 143.981 77.1342C142.715 78.2125 141.778 79.4784 141.168 80.9318C140.606 82.3852 140.324 83.9793 140.324 85.714C140.324 87.4487 140.723 89.0193 141.52 90.4259C142.317 91.7855 143.466 92.8639 144.966 93.6609C146.466 94.411 148.224 94.7861 150.24 94.7861C153.288 94.7861 155.937 94.1766 158.187 92.9576C160.438 91.7386 162.172 90.2383 163.391 88.4567C164.657 86.6751 165.314 84.9873 165.361 83.3932L170.705 91.9731C169.955 93.8953 168.924 95.8879 167.611 97.9508C166.345 100.014 164.728 101.959 162.758 103.788C160.789 105.57 158.422 107.046 155.656 108.218C152.889 109.344 149.607 109.906 145.81 109.906C140.981 109.906 136.597 108.945 132.659 107.023C128.767 105.054 125.673 102.358 123.376 98.9354C121.125 95.4659 120 91.5277 120 87.1205C120 83.1354 120.75 79.5956 122.25 76.5012C123.751 73.4069 125.954 70.8048 128.861 68.695C131.815 66.5383 135.495 64.9208 139.902 63.8425C144.31 62.7172 149.42 62.1546 155.234 62.1546H166.978Z" fill="#111111"/>
<path d="M220.145 48.6519V108.5H199.891V32.4065H218.879L220.145 48.6519ZM217.191 67.7807H211.706C211.706 62.1546 212.432 57.0911 213.886 52.5902C215.339 48.0425 217.379 44.1745 220.004 40.9864C222.63 37.7513 225.748 35.2899 229.358 33.6021C233.015 31.8674 237.094 31 241.594 31C245.158 31 248.416 31.5157 251.37 32.5472C254.324 33.5786 256.855 35.2196 258.965 37.47C261.122 39.7205 262.763 42.6976 263.888 46.4015C265.06 50.1054 265.646 54.6297 265.646 59.9745V108.5H245.251V59.9042C245.251 56.5285 244.783 53.903 243.845 52.0276C242.907 50.1522 241.524 48.8395 239.696 48.0893C237.914 47.2923 235.711 46.8938 233.085 46.8938C230.366 46.8938 227.998 47.433 225.982 48.5113C224.013 49.5896 222.372 51.0899 221.059 53.0122C219.793 54.8876 218.832 57.0911 218.176 59.6229C217.519 62.1546 217.191 64.8739 217.191 67.7807Z" fill="#111111"/>
<path d="M277.813 71.2267V69.7499C277.813 64.1707 278.61 59.0368 280.204 54.3484C281.798 49.6131 284.119 45.5107 287.166 42.0413C290.214 38.5718 293.964 35.876 298.418 33.9537C302.872 31.9846 307.983 31 313.749 31C319.516 31 324.65 31.9846 329.151 33.9537C333.652 35.876 337.426 38.5718 340.474 42.0413C343.568 45.5107 345.912 49.6131 347.506 54.3484C349.1 59.0368 349.897 64.1707 349.897 69.7499V71.2267C349.897 76.7591 349.1 81.8929 347.506 86.6282C345.912 91.3167 343.568 95.4191 340.474 98.9354C337.426 102.405 333.675 105.101 329.221 107.023C324.767 108.945 319.657 109.906 313.89 109.906C308.123 109.906 302.989 108.945 298.489 107.023C294.035 105.101 290.26 102.405 287.166 98.9354C284.119 95.4191 281.798 91.3167 280.204 86.6282C278.61 81.8929 277.813 76.7591 277.813 71.2267ZM298.067 69.7499V71.2267C298.067 74.4149 298.348 77.392 298.911 80.1582C299.473 82.9244 300.364 85.3624 301.583 87.4722C302.849 89.5351 304.49 91.1526 306.506 92.3247C308.522 93.4968 310.983 94.0829 313.89 94.0829C316.703 94.0829 319.118 93.4968 321.134 92.3247C323.15 91.1526 324.767 89.5351 325.986 87.4722C327.205 85.3624 328.096 82.9244 328.659 80.1582C329.268 77.392 329.573 74.4149 329.573 71.2267V69.7499C329.573 66.6555 329.268 63.7487 328.659 61.0294C328.096 58.2632 327.182 55.8252 325.916 53.7155C324.697 51.5588 323.079 49.8709 321.063 48.6519C319.047 47.433 316.609 46.8235 313.749 46.8235C310.89 46.8235 308.452 47.433 306.435 48.6519C304.466 49.8709 302.849 51.5588 301.583 53.7155C300.364 55.8252 299.473 58.2632 298.911 61.0294C298.348 63.7487 298.067 66.6555 298.067 69.7499Z" fill="#111111"/>
<path d="M0 80C0 68.9543 8.95431 60 20 60H96C98.2091 60 100 61.7909 100 64V90C100 101.046 91.0457 110 80 110H4C1.79086 110 0 108.209 0 106V80Z" fill="#4992FF"/>
<path d="M50 4C50 1.79086 51.7909 0 54 0H80C91.0457 0 100 8.95431 100 20V46C100 48.2091 98.2091 50 96 50H70C58.9543 50 50 41.0457 50 30V4Z" fill="#E37FE6"/>
</svg>
