<svg version="1.1" xmlns="http://www.w3.org/2000/svg" xmlns:xlink="http://www.w3.org/1999/xlink">
  <symbol id="js" viewBox="0 0 256 256">
    <path d="M0 0h256v256H0V0z" fill="#F7DF1E"/>
    <path d="M67.312 213.932l19.59-11.856c3.78 6.701 7.218 12.371 15.465 12.371 7.905 0 12.89-3.092 12.89-15.12v-81.798h24.057v82.138c0 24.917-14.606 36.259-35.916 36.259-19.245 0-30.416-9.967-36.087-21.996M152.381 211.354l19.588-11.341c5.157 8.421 11.859 14.607 23.715 14.607 9.969 0 16.325-4.984 16.325-11.858 0-8.248-6.53-11.17-17.528-15.98l-6.013-2.58c-17.357-7.387-28.87-16.667-28.87-36.257 0-18.044 13.747-31.792 35.228-31.792 15.294 0 26.292 5.328 34.196 19.247L210.29 147.43c-4.125-7.389-8.591-10.31-15.465-10.31-7.046 0-11.514 4.468-11.514 10.31 0 7.217 4.468 10.14 14.778 14.608l6.014 2.577c20.45 8.765 31.963 17.7 31.963 37.804 0 21.654-17.012 33.51-39.867 33.51-22.339 0-36.774-10.654-43.819-24.574" fill="black" />
  </symbol>
  <symbol id="vue" viewBox="0 0 128 128">
    <path fill="#42b883" d="M78.8,10L64,35.4L49.2,10H0l64,110l64-110C128,10,78.8,10,78.8,10z" />
    <path fill="#35495e" d="M78.8,10L64,35.4L49.2,10H25.6L64,76l38.4-66H78.8z" />
  </symbol>
  <symbol id="chrome" viewBox="0 0 32 32">
    <path d="M4.7434,22.505A12.9769,12.9769,0,0,0,14.88,28.949l5.8848-10.1927L16,16.0058,11.2385,18.755l-1.5875-2.75L8.4885,13.9919,5.3553,8.5649A12.9894,12.9894,0,0,0,4.7434,22.505Z" fill="#00ac47"/>
    <path d="M16,3.0072A12.9769,12.9769,0,0,0,5.3507,8.5636l5.8848,10.1927L16,16.0057V10.5072H27.766A12.99,12.99,0,0,0,16,3.0072Z" fill="#ea4435"/>
    <path d="M27.2557,22.505a12.9772,12.9772,0,0,0,.5124-12H15.9986v5.5011l4.7619,2.7492-1.5875,2.75-1.1625,2.0135-3.1333,5.4269A12.99,12.99,0,0,0,27.2557,22.505Z" fill="#ffba00"/>
    <circle cx="15.9995" cy="16.0072" fill="#ffffff" r="5.5"/>
    <circle cx="15.9995" cy="16.0072" fill="#4285f4" r="4.25"/>
  </symbol>
</svg>