<svg version="1.1" xmlns="http://www.w3.org/2000/svg" xmlns:xlink="http://www.w3.org/1999/xlink">
  <!-- Alerts / Info -->
  <symbol id="alert-triangle" viewBox="0 0 24 24">
    <path d="M3.5 22C3 22 2.5 21.9 2 21.6C0.600002 20.8 0.100002 18.9 0.900002 17.5L9.4 3.30002C9.7 2.90002 10 2.50002 10.4 2.30002C11.1 1.90002 11.9 1.80002 12.7 2.00002C13.5 2.20002 14.1 2.70002 14.6 3.40002L23 17.5C23.3 18 23.4 18.5 23.4 19C23.4 19.8 23.1 20.6 22.5 21.1C22 21.7 21.3 22 20.5 22H3.5ZM11.1 4.40002L2.7 18.5C2.4 19 2.6 19.6 3.1 19.9C3.2 20 3.4 20 3.5 20H20.4C20.7 20 20.9 19.9 21.1 19.7C21.3 19.5 21.4 19.3 21.4 19C21.4 18.8 21.4 18.7 21.3 18.5L12.9 4.40002C12.6 3.90002 12 3.80002 11.5 4.00002C11.3 4.10002 11.2 4.20002 11.1 4.40002Z" />
    <path d="M12 14C11.4 14 11 13.6 11 13V9.00002C11 8.40002 11.4 8.00002 12 8.00002C12.6 8.00002 13 8.40002 13 9.00002V13C13 13.6 12.6 14 12 14Z" />
    <path d="M12 18C11.7 18 11.5 17.9 11.3 17.7C11.1 17.5 11 17.3 11 17C11 16.9 11 16.7 11.1 16.6C11.2 16.5 11.2 16.4 11.3 16.3C11.4 16.2 11.5 16.1 11.6 16.1C11.8 16 12 16 12.2 16C12.3 16 12.3 16 12.4 16.1C12.5 16.1 12.5 16.1 12.6 16.2C12.6 16.2 12.7 16.3 12.8 16.3C12.9 16.4 13 16.5 13 16.6C13 16.7 13.1 16.9 13.1 17C13.1 17.3 13 17.5 12.8 17.7C12.5 17.9 12.3 18 12 18Z" />
  </symbol>
  <symbol id="info-circle" viewBox="0 0 24 24">
    <path
      fill-rule="evenodd"
      clip-rule="evenodd"
      d="M12 3C7.02944 3 3 7.02944 3 12C3 16.9706 7.02944 21 12 21C16.9706 21 21 16.9706 21 12C21 7.02944 16.9706 3 12 3ZM1 12C1 5.92487 5.92487 1 12 1C18.0751 1 23 5.92487 23 12C23 18.0751 18.0751 23 12 23C5.92487 23 1 18.0751 1 12Z"
    />
    <path
      fill-rule="evenodd"
      clip-rule="evenodd"
      d="M12 11C12.5523 11 13 11.4477 13 12V16C13 16.5523 12.5523 17 12 17C11.4477 17 11 16.5523 11 16V12C11 11.4477 11.4477 11 12 11Z"
    />
    <path
      d="M13 8C13 8.55228 12.5523 9 12 9C11.4477 9 11 8.55228 11 8C11 7.44772 11.4477 7 12 7C12.5523 7 13 7.44772 13 8Z"
    />
  </symbol>
  <symbol id="help" viewBox="0 0 24 24">
    <path
      fill-rule="evenodd"
      clip-rule="evenodd"
      d="M12 3C7.02944 3 3 7.02944 3 12C3 16.9706 7.02944 21 12 21C16.9706 21 21 16.9706 21 12C21 7.02944 16.9706 3 12 3ZM1 12C1 5.92487 5.92487 1 12 1C18.0751 1 23 5.92487 23 12C23 18.0751 18.0751 23 12 23C5.92487 23 1 18.0751 1 12Z"
    />
    <path
      fill-rule="evenodd"
      clip-rule="evenodd"
      d="M12 9C10.3431 9 9 10.3431 9 12C9 13.6569 10.3431 15 12 15C13.6569 15 15 13.6569 15 12C15 10.3431 13.6569 9 12 9ZM7 12C7 9.23858 9.23858 7 12 7C14.7614 7 17 9.23858 17 12C17 14.7614 14.7614 17 12 17C9.23858 17 7 14.7614 7 12Z"
    />
    <path
      fill-rule="evenodd"
      clip-rule="evenodd"
      d="M4.22289 4.22289C4.61342 3.83237 5.24658 3.83237 5.63711 4.22289L9.87711 8.46289C10.2676 8.85342 10.2676 9.48658 9.87711 9.87711C9.48658 10.2676 8.85342 10.2676 8.46289 9.87711L4.22289 5.63711C3.83237 5.24658 3.83237 4.61342 4.22289 4.22289Z"
    />
    <path
      fill-rule="evenodd"
      clip-rule="evenodd"
      d="M14.1229 14.1229C14.5134 13.7324 15.1466 13.7324 15.5371 14.1229L19.7771 18.3629C20.1676 18.7534 20.1676 19.3866 19.7771 19.7771C19.3866 20.1676 18.7534 20.1676 18.3629 19.7771L14.1229 15.5371C13.7324 15.1466 13.7324 14.5134 14.1229 14.1229Z"
    />
    <path
      fill-rule="evenodd"
      clip-rule="evenodd"
      d="M19.7771 4.22289C20.1676 4.61342 20.1676 5.24658 19.7771 5.63711L15.5371 9.87711C15.1466 10.2676 14.5134 10.2676 14.1229 9.87711C13.7324 9.48658 13.7324 8.85342 14.1229 8.46289L18.3629 4.22289C18.7534 3.83237 19.3866 3.83237 19.7771 4.22289Z"
    />
    <path
      fill-rule="evenodd"
      clip-rule="evenodd"
      d="M19.0671 4.93289C19.4576 5.32342 19.4576 5.95658 19.0671 6.34711L15.5371 9.87711C15.1466 10.2676 14.5134 10.2676 14.1229 9.87711C13.7324 9.48658 13.7324 8.85342 14.1229 8.46289L17.6529 4.93289C18.0434 4.54237 18.6766 4.54237 19.0671 4.93289Z"
    />
    <path
      fill-rule="evenodd"
      clip-rule="evenodd"
      d="M9.87711 14.1229C10.2676 14.5134 10.2676 15.1466 9.87711 15.5371L5.63711 19.7771C5.24658 20.1676 4.61342 20.1676 4.22289 19.7771C3.83237 19.3866 3.83237 18.7534 4.22289 18.3629L8.46289 14.1229C8.85342 13.7324 9.48658 13.7324 9.87711 14.1229Z"
    />
  </symbol>

  <!-- Arrows -->
  <symbol id="code" viewBox="0 0 24 24">
    <path xmlns="http://www.w3.org/2000/svg" fill-rule="evenodd" clip-rule="evenodd" d="M8.70711 6.70711C9.09763 6.31658 9.09763 5.68342 8.70711 5.29289C8.31658 4.90237 7.68342 4.90237 7.29289 5.29289L1.29289 11.2929C0.902369 11.6834 0.902369 12.3166 1.29289 12.7071L7.29289 18.7071C7.68342 19.0976 8.31658 19.0976 8.70711 18.7071C9.09763 18.3166 9.09763 17.6834 8.70711 17.2929L3.41421 12L8.70711 6.70711ZM16.7071 5.29289C16.3166 4.90237 15.6834 4.90237 15.2929 5.29289C14.9024 5.68342 14.9024 6.31658 15.2929 6.70711L20.5858 12L15.2929 17.2929C14.9024 17.6834 14.9024 18.3166 15.2929 18.7071C15.6834 19.0976 16.3166 19.0976 16.7071 18.7071L22.7071 12.7071C23.0976 12.3166 23.0976 11.6834 22.7071 11.2929L16.7071 5.29289Z" />
  </symbol>
  <symbol id="arrow-down-up" viewBox="0 0 24 24">
    <path xmlns="http://www.w3.org/2000/svg" fill-rule="evenodd" clip-rule="evenodd" d="M17.4691 3.53072C17.301 3.21496 16.9685 3 16.5858 3C16.1786 3 15.8283 3.24337 15.6723 3.59258C15.6242 3.62604 15.5784 3.66421 15.5355 3.70708L11.2929 7.94972C10.9024 8.34024 10.9024 8.97341 11.2929 9.36393C11.6834 9.75446 12.3166 9.75446 12.7071 9.36393L15.5858 6.48524V20C15.5858 20.5523 16.0335 21 16.5858 21C17.1381 21 17.5858 20.5523 17.5858 20V6.41418L20.5355 9.36393C20.9261 9.75446 21.5592 9.75446 21.9498 9.36393C22.3403 8.97341 22.3403 8.34024 21.9498 7.94972L17.7071 3.70708C17.635 3.63498 17.5547 3.57619 17.4691 3.53072ZM6.53094 20.4693C6.69905 20.785 7.03153 21 7.41421 21C7.8214 21 8.17174 20.7566 8.32772 20.4074C8.3758 20.374 8.4216 20.3358 8.46447 20.2929L12.7071 16.0503C13.0976 15.6598 13.0976 15.0266 12.7071 14.6361C12.3166 14.2455 11.6834 14.2455 11.2929 14.6361L8.41421 17.5148L8.41421 4C8.41421 3.44772 7.96649 3 7.41421 3C6.86192 3 6.41421 3.44772 6.41421 4L6.41421 17.5858L3.46446 14.6361C3.07394 14.2455 2.44077 14.2455 2.05025 14.6361C1.65972 15.0266 1.65972 15.6598 2.05025 16.0503L6.29289 20.2929C6.36499 20.365 6.44535 20.4238 6.53094 20.4693Z" />
  </symbol>
  <symbol id="arrow-up" viewBox="0 0 24 24">
    <path
      fill-rule="evenodd"
      clip-rule="evenodd"
      d="M12.7071 4.29289C12.3166 3.90237 11.6834 3.90237 11.2929 4.29289L4.29289 11.2929C3.90237 11.6834 3.90237 12.3166 4.29289 12.7071C4.68342 13.0976 5.31658 13.0976 5.70711 12.7071L11 7.41421V19C11 19.5523 11.4477 20 12 20C12.5523 20 13 19.5523 13 19V7.41421L18.2929 12.7071C18.6834 13.0976 19.3166 13.0976 19.7071 12.7071C20.0976 12.3166 20.0976 11.6834 19.7071 11.2929L12.7071 4.29289Z"
    />
  </symbol>
  <symbol id="arrow-down" viewBox="0 0 24 24">
    <path
      fill-rule="evenodd"
      clip-rule="evenodd"
      d="M12 4C12.5523 4 13 4.44772 13 5V19C13 19.5523 12.5523 20 12 20C11.4477 20 11 19.5523 11 19V5C11 4.44772 11.4477 4 12 4Z"
    />
    <path
      fill-rule="evenodd"
      clip-rule="evenodd"
      d="M4.29289 11.2929C4.68342 10.9024 5.31658 10.9024 5.70711 11.2929L12 17.5858L18.2929 11.2929C18.6834 10.9024 19.3166 10.9024 19.7071 11.2929C20.0976 11.6834 20.0976 12.3166 19.7071 12.7071L12.7071 19.7071C12.3166 20.0976 11.6834 20.0976 11.2929 19.7071L4.29289 12.7071C3.90237 12.3166 3.90237 11.6834 4.29289 11.2929Z"
    />
  </symbol>
  <symbol id="arrow-left" viewBox="0 0 24 24">
    <path
      fill-rule="evenodd"
      clip-rule="evenodd"
      d="M12.7071 5.70711C13.0976 5.31658 13.0976 4.68342 12.7071 4.29289C12.3166 3.90237 11.6834 3.90237 11.2929 4.29289L4.29289 11.2929C3.90237 11.6834 3.90237 12.3166 4.29289 12.7071L11.2929 19.7071C11.6834 20.0976 12.3166 20.0976 12.7071 19.7071C13.0976 19.3166 13.0976 18.6834 12.7071 18.2929L7.41421 13H19C19.5523 13 20 12.5523 20 12C20 11.4477 19.5523 11 19 11H7.41421L12.7071 5.70711Z"
    />
  </symbol>
  <symbol id="arrow-right" viewBox="0 0 24 24">
    <path
      fill-rule="evenodd"
      clip-rule="evenodd"
      d="M12.7071 4.29289C12.3166 3.90237 11.6834 3.90237 11.2929 4.29289C10.9024 4.68342 10.9024 5.31658 11.2929 5.70711L16.5858 11H5C4.44772 11 4 11.4477 4 12C4 12.5523 4.44772 13 5 13H16.5858L11.2929 18.2929C10.9024 18.6834 10.9024 19.3166 11.2929 19.7071C11.6834 20.0976 12.3166 20.0976 12.7071 19.7071L19.7071 12.7071C20.0976 12.3166 20.0976 11.6834 19.7071 11.2929L12.7071 4.29289Z"
    />
  </symbol>

  <!-- Chevron -->
  <symbol id="chevron-up" viewBox="0 0 24 24">
    <path
      fill-rule="evenodd"
      clip-rule="evenodd"
      d="M11.2929 8.29289C11.6834 7.90237 12.3166 7.90237 12.7071 8.29289L18.7071 14.2929C19.0976 14.6834 19.0976 15.3166 18.7071 15.7071C18.3166 16.0976 17.6834 16.0976 17.2929 15.7071L12 10.4142L6.70711 15.7071C6.31658 16.0976 5.68342 16.0976 5.29289 15.7071C4.90237 15.3166 4.90237 14.6834 5.29289 14.2929L11.2929 8.29289Z"
    />
  </symbol>
  <symbol id="chevron-down" viewBox="0 0 24 24">
    <path
      fill-rule="evenodd"
      clip-rule="evenodd"
      d="M5.29289 8.29289C5.68342 7.90237 6.31658 7.90237 6.70711 8.29289L12 13.5858L17.2929 8.29289C17.6834 7.90237 18.3166 7.90237 18.7071 8.29289C19.0976 8.68342 19.0976 9.31658 18.7071 9.70711L12.7071 15.7071C12.3166 16.0976 11.6834 16.0976 11.2929 15.7071L5.29289 9.70711C4.90237 9.31658 4.90237 8.68342 5.29289 8.29289Z"
    />
  </symbol>
  <symbol id="chevron-left" viewBox="0 0 24 24">
    <path
      fill-rule="evenodd"
      clip-rule="evenodd"
      d="M15.7071 5.29289C16.0976 5.68342 16.0976 6.31658 15.7071 6.70711L10.4142 12L15.7071 17.2929C16.0976 17.6834 16.0976 18.3166 15.7071 18.7071C15.3166 19.0976 14.6834 19.0976 14.2929 18.7071L8.29289 12.7071C7.90237 12.3166 7.90237 11.6834 8.29289 11.2929L14.2929 5.29289C14.6834 4.90237 15.3166 4.90237 15.7071 5.29289Z"
    />
  </symbol>
  <symbol id="chevron-right" viewBox="0 0 24 24">
    <path
      fill-rule="evenodd"
      clip-rule="evenodd"
      d="M8.29289 5.29289C8.68342 4.90237 9.31658 4.90237 9.70711 5.29289L15.7071 11.2929C16.0976 11.6834 16.0976 12.3166 15.7071 12.7071L9.70711 18.7071C9.31658 19.0976 8.68342 19.0976 8.29289 18.7071C7.90237 18.3166 7.90237 17.6834 8.29289 17.2929L13.5858 12L8.29289 6.70711C7.90237 6.31658 7.90237 5.68342 8.29289 5.29289Z"
    />
  </symbol>

  <!-- Check -->
  <symbol id="check" viewBox="0 0 24 24">
    <path
      fill-rule="evenodd"
      clip-rule="evenodd"
      d="M20.7071 5.29289C21.0976 5.68342 21.0976 6.31658 20.7071 6.70711L9.70711 17.7071C9.31658 18.0976 8.68342 18.0976 8.29289 17.7071L3.29289 12.7071C2.90237 12.3166 2.90237 11.6834 3.29289 11.2929C3.68342 10.9024 4.31658 10.9024 4.70711 11.2929L9 15.5858L19.2929 5.29289C19.6834 4.90237 20.3166 4.90237 20.7071 5.29289Z"
    />
  </symbol>
  <symbol id="check-circle" viewBox="0 0 24 24">
    <path
      xmlns="http://www.w3.org/2000/svg"
      fill-rule="evenodd"
      clip-rule="evenodd"
      d="M10.0166 3.21556C11.9096 2.78785 13.8902 2.98353 15.663 3.77343C16.1675 3.99821 16.7587 3.77147 16.9834 3.267C17.2082 2.76253 16.9815 2.17135 16.477 1.94657C14.3103 0.981141 11.8896 0.741971 9.57581 1.26473C7.26206 1.78749 5.17929 3.04417 3.63811 4.84735C2.09693 6.65053 1.17992 8.90359 1.02384 11.2705C0.86777 13.6374 1.48099 15.9914 2.77206 17.9813C4.06312 19.9713 5.96285 21.4906 8.18792 22.3126C10.413 23.1347 12.8442 23.2154 15.1189 22.5429C17.3936 21.8703 19.39 20.4804 20.8103 18.5806C22.2306 16.6807 22.9986 14.3721 23 12V11.08C23 10.5277 22.5523 10.08 22 10.08C21.4477 10.08 21 10.5277 21 11.08V11.9994C20.9989 13.9402 20.3705 15.8286 19.2084 17.3831C18.0464 18.9375 16.413 20.0747 14.5518 20.6249C12.6907 21.1752 10.7015 21.1091 8.88102 20.4366C7.06051 19.764 5.50619 18.5209 4.44987 16.8928C3.39354 15.2647 2.89181 13.3387 3.01951 11.4021C3.14721 9.46554 3.89749 7.62212 5.15845 6.14679C6.41942 4.67146 8.12351 3.64327 10.0166 3.21556ZM22.7075 4.70675C23.0978 4.31603 23.0975 3.68287 22.7068 3.29254C22.316 2.90221 21.6829 2.90253 21.2925 3.29325L11.9996 12.5954L9.70711 10.3029C9.31658 9.91237 8.68342 9.91237 8.29289 10.3029C7.90237 10.6934 7.90237 11.3266 8.29289 11.7171L11.2929 14.7171C11.4805 14.9047 11.7349 15.0101 12.0002 15.01C12.2656 15.0099 12.52 14.9044 12.7075 14.7168L22.7075 4.70675Z"
    />
  </symbol>
  <symbol id="check-square" viewBox="0 0 24 24">
    <path
      xmlns="http://www.w3.org/2000/svg"
      fill-rule="evenodd"
      clip-rule="evenodd"
      d="M4.29289 4.29289C4.48043 4.10536 4.73478 4 5 4H16C16.5523 4 17 3.55228 17 3C17 2.44772 16.5523 2 16 2H5C4.20435 2 3.44129 2.31607 2.87868 2.87868C2.31607 3.44129 2 4.20435 2 5V19C2 19.7957 2.31607 20.5587 2.87868 21.1213C3.44129 21.6839 4.20435 22 5 22H19C19.7957 22 20.5587 21.6839 21.1213 21.1213C21.6839 20.5587 22 19.7957 22 19V12C22 11.4477 21.5523 11 21 11C20.4477 11 20 11.4477 20 12V19C20 19.2652 19.8946 19.5196 19.7071 19.7071C19.5196 19.8946 19.2652 20 19 20H5C4.73478 20 4.48043 19.8946 4.29289 19.7071C4.10536 19.5196 4 19.2652 4 19V5C4 4.73478 4.10536 4.48043 4.29289 4.29289ZM12.7071 14.7071L22.7071 4.70711C23.0976 4.31658 23.0976 3.68342 22.7071 3.29289C22.3166 2.90237 21.6834 2.90237 21.2929 3.29289L12 12.5858L9.70711 10.2929C9.31658 9.90237 8.68342 9.90237 8.29289 10.2929C7.90237 10.6834 7.90237 11.3166 8.29289 11.7071L11.2929 14.7071C11.6834 15.0976 12.3166 15.0976 12.7071 14.7071Z"
    />
  </symbol>

  <!-- Close -->
  <symbol id="close" viewBox="0 0 24 24">
    <path
      fill-rule="evenodd"
      clip-rule="evenodd"
      d="M18.7071 5.29289C19.0976 5.68342 19.0976 6.31658 18.7071 6.70711L6.70711 18.7071C6.31658 19.0976 5.68342 19.0976 5.29289 18.7071C4.90237 18.3166 4.90237 17.6834 5.29289 17.2929L17.2929 5.29289C17.6834 4.90237 18.3166 4.90237 18.7071 5.29289Z"
    />
    <path
      fill-rule="evenodd"
      clip-rule="evenodd"
      d="M5.29289 5.29289C5.68342 4.90237 6.31658 4.90237 6.70711 5.29289L18.7071 17.2929C19.0976 17.6834 19.0976 18.3166 18.7071 18.7071C18.3166 19.0976 17.6834 19.0976 17.2929 18.7071L5.29289 6.70711C4.90237 6.31658 4.90237 5.68342 5.29289 5.29289Z"
    />
  </symbol>
  <symbol id="close-circle" viewBox="0 0 24 24">
    <path
      fill-rule="evenodd"
      clip-rule="evenodd"
      d="M12 3C7.02944 3 3 7.02944 3 12C3 16.9706 7.02944 21 12 21C16.9706 21 21 16.9706 21 12C21 7.02944 16.9706 3 12 3ZM1 12C1 5.92487 5.92487 1 12 1C18.0751 1 23 5.92487 23 12C23 18.0751 18.0751 23 12 23C5.92487 23 1 18.0751 1 12Z"
    />
    <path
      fill-rule="evenodd"
      clip-rule="evenodd"
      d="M15.7071 8.29289C16.0976 8.68342 16.0976 9.31658 15.7071 9.70711L9.70711 15.7071C9.31658 16.0976 8.68342 16.0976 8.29289 15.7071C7.90237 15.3166 7.90237 14.6834 8.29289 14.2929L14.2929 8.29289C14.6834 7.90237 15.3166 7.90237 15.7071 8.29289Z"
    />
    <path
      fill-rule="evenodd"
      clip-rule="evenodd"
      d="M8.29289 8.29289C8.68342 7.90237 9.31658 7.90237 9.70711 8.29289L15.7071 14.2929C16.0976 14.6834 16.0976 15.3166 15.7071 15.7071C15.3166 16.0976 14.6834 16.0976 14.2929 15.7071L8.29289 9.70711C7.90237 9.31658 7.90237 8.68342 8.29289 8.29289Z"
    />
  </symbol>

  <!-- Download / Upload -->
  <symbol id="download" viewBox="0 0 24 24">
    <path
      fill-rule="evenodd"
      clip-rule="evenodd"
      d="M3 14C3.55228 14 4 14.4477 4 15V19C4 19.2652 4.10536 19.5196 4.29289 19.7071C4.48043 19.8946 4.73478 20 5 20H19C19.2652 20 19.5196 19.8946 19.7071 19.7071C19.8946 19.5196 20 19.2652 20 19V15C20 14.4477 20.4477 14 21 14C21.5523 14 22 14.4477 22 15V19C22 19.7957 21.6839 20.5587 21.1213 21.1213C20.5587 21.6839 19.7957 22 19 22H5C4.20435 22 3.44129 21.6839 2.87868 21.1213C2.31607 20.5587 2 19.7956 2 19V15C2 14.4477 2.44772 14 3 14Z"
    />
    <path
      fill-rule="evenodd"
      clip-rule="evenodd"
      d="M6.29289 9.29289C6.68342 8.90237 7.31658 8.90237 7.70711 9.29289L12 13.5858L16.2929 9.29289C16.6834 8.90237 17.3166 8.90237 17.7071 9.29289C18.0976 9.68342 18.0976 10.3166 17.7071 10.7071L12.7071 15.7071C12.3166 16.0976 11.6834 16.0976 11.2929 15.7071L6.29289 10.7071C5.90237 10.3166 5.90237 9.68342 6.29289 9.29289Z"
    />
    <path
      fill-rule="evenodd"
      clip-rule="evenodd"
      d="M12 2C12.5523 2 13 2.44772 13 3V15C13 15.5523 12.5523 16 12 16C11.4477 16 11 15.5523 11 15V3C11 2.44772 11.4477 2 12 2Z"
    />
  </symbol>
  <symbol id="upload" viewBox="0 0 24 24">
    <path
      fill-rule="evenodd"
      clip-rule="evenodd"
      d="M3 14C3.55228 14 4 14.4477 4 15V19C4 19.2652 4.10536 19.5196 4.29289 19.7071C4.48043 19.8946 4.73478 20 5 20H19C19.2652 20 19.5196 19.8946 19.7071 19.7071C19.8946 19.5196 20 19.2652 20 19V15C20 14.4477 20.4477 14 21 14C21.5523 14 22 14.4477 22 15V19C22 19.7957 21.6839 20.5587 21.1213 21.1213C20.5587 21.6839 19.7957 22 19 22H5C4.20435 22 3.44129 21.6839 2.87868 21.1213C2.31607 20.5587 2 19.7957 2 19V15C2 14.4477 2.44772 14 3 14Z"
    />
    <path
      fill-rule="evenodd"
      clip-rule="evenodd"
      d="M11.2929 2.29289C11.6834 1.90237 12.3166 1.90237 12.7071 2.29289L17.7071 7.29289C18.0976 7.68342 18.0976 8.31658 17.7071 8.70711C17.3166 9.09763 16.6834 9.09763 16.2929 8.70711L12 4.41421L7.70711 8.70711C7.31658 9.09763 6.68342 9.09763 6.29289 8.70711C5.90237 8.31658 5.90237 7.68342 6.29289 7.29289L11.2929 2.29289Z"
    />
    <path
      fill-rule="evenodd"
      clip-rule="evenodd"
      d="M12 2C12.5523 2 13 2.44772 13 3V15C13 15.5523 12.5523 16 12 16C11.4477 16 11 15.5523 11 15V3C11 2.44772 11.4477 2 12 2Z"
    />
  </symbol>

  <!-- Eye -->
  <symbol id="eye" viewBox="0 0 24 24">
    <path
      fill-rule="evenodd"
      clip-rule="evenodd"
      d="M2.14074 12C2.25003 12.1889 2.39492 12.4296 2.57441 12.7075C3.03543 13.4213 3.71817 14.3706 4.60454 15.3161C6.39552 17.2264 8.89951 19 12 19C15.1005 19 17.6045 17.2264 19.3955 15.3161C20.2818 14.3706 20.9646 13.4213 21.4256 12.7075C21.6051 12.4296 21.75 12.1889 21.8593 12C21.75 11.8111 21.6051 11.5704 21.4256 11.2925C20.9646 10.5787 20.2818 9.6294 19.3955 8.68394C17.6045 6.77356 15.1005 5 12 5C8.89951 5 6.39552 6.77356 4.60454 8.68394C3.71817 9.6294 3.03543 10.5787 2.57441 11.2925C2.39492 11.5704 2.25003 11.8111 2.14074 12ZM23 12C23.8944 11.5528 23.8943 11.5524 23.8941 11.5521L23.8925 11.5489L23.889 11.542L23.8777 11.5198C23.8681 11.5013 23.8546 11.4753 23.8372 11.4424C23.8025 11.3767 23.752 11.2832 23.686 11.166C23.5542 10.9316 23.3601 10.6015 23.1057 10.2075C22.5979 9.42131 21.8432 8.3706 20.8545 7.31606C18.8955 5.22644 15.8995 3 12 3C8.10049 3 5.10448 5.22644 3.14546 7.31606C2.15683 8.3706 1.40207 9.42131 0.894336 10.2075C0.63985 10.6015 0.445792 10.9316 0.313971 11.166C0.248023 11.2832 0.19754 11.3767 0.162753 11.4424C0.145357 11.4753 0.131875 11.5013 0.122338 11.5198L0.11099 11.542L0.107539 11.5489L0.10637 11.5512C0.106186 11.5516 0.105573 11.5528 1 12L0.105573 11.5528C-0.0351909 11.8343 -0.0351909 12.1657 0.105573 12.4472L1 12C0.105573 12.4472 0.105389 12.4468 0.105573 12.4472L0.107539 12.4511L0.11099 12.458L0.122338 12.4802C0.131875 12.4987 0.145357 12.5247 0.162753 12.5576C0.19754 12.6233 0.248023 12.7168 0.313971 12.834C0.445792 13.0684 0.63985 13.3985 0.894336 13.7925C1.40207 14.5787 2.15683 15.6294 3.14546 16.6839C5.10448 18.7736 8.10049 21 12 21C15.8995 21 18.8955 18.7736 20.8545 16.6839C21.8432 15.6294 22.5979 14.5787 23.1057 13.7925C23.3601 13.3985 23.5542 13.0684 23.686 12.834C23.752 12.7168 23.8025 12.6233 23.8372 12.5576C23.8546 12.5247 23.8681 12.4987 23.8777 12.4802L23.889 12.458L23.8925 12.4511L23.8936 12.4488C23.8938 12.4484 23.8944 12.4472 23 12ZM23 12L23.8944 12.4472C24.0352 12.1657 24.0348 11.8336 23.8941 11.5521L23 12Z"
    />
    <path
      fill-rule="evenodd"
      clip-rule="evenodd"
      d="M12 10C10.8954 10 10 10.8954 10 12C10 13.1046 10.8954 14 12 14C13.1046 14 14 13.1046 14 12C14 10.8954 13.1046 10 12 10ZM8 12C8 9.79086 9.79086 8 12 8C14.2091 8 16 9.79086 16 12C16 14.2091 14.2091 16 12 16C9.79086 16 8 14.2091 8 12Z"
    />
  </symbol>
  <symbol id="eye-off" viewBox="0 0 24 24">
    <path
      d="M12 21C4.5 21 0.3 12.8 0.1 12.4C-1.49012e-08 12.1 -1.49012e-08 11.8 0.1 11.5C1.4 9.1 3.2 7 5.5 5.3C5.9 4.9 6.5 5 6.9 5.5C7.2 5.9 7.2 6.6 6.7 6.9C4.8 8.3 3.3 10 2.1 12C3 13.6 6.6 19 12 19C13.9 19 15.8 18.3 17.3 17.1C17.7 16.8 18.4 16.9 18.7 17.3C19 17.7 18.9 18.4 18.5 18.7C16.7 20.2 14.4 21 12 21ZM20.8 16.2C20.6 16.2 20.3 16.1 20.2 16C19.8 15.6 19.7 15 20.1 14.6C20.8 13.8 21.4 13 21.9 12.1C21 10.5 17.4 5.1 12 5.1C11.4 5.1 10.7 5.2 10.1 5.3C9.6 5.3 9.1 5 8.9 4.5C8.7 4 9.1 3.4 9.6 3.3C10.4 3.1 11.2 3 12 3C19.5 3 23.7 11.2 23.9 11.6C24 11.9 24 12.2 23.9 12.5C23.3 13.7 22.5 14.8 21.6 15.9C21.4 16.1 21.1 16.2 20.8 16.2ZM11.9 16.1C10.9 16.1 9.9 15.7 9.2 15C8.4 14.3 8 13.3 7.9 12.2C7.9 11.1 8.2 10.1 9 9.3C9.1 9.2 9.1 9.2 9.2 9.1C9.6 8.7 10.2 8.7 10.6 9.1C11 9.5 11 10.1 10.6 10.5L10.5 10.6C10.1 11 9.9 11.5 10 12C10 12.5 10.2 13 10.6 13.4C11.4 14.2 12.7 14.1 13.4 13.3C13.8 12.9 14.4 12.9 14.8 13.3C15.2 13.7 15.2 14.3 14.8 14.7C14.1 15.6 13 16.1 11.9 16.1Z"
    />
    <path
      d="M23 24C22.7 24 22.5 23.9 22.3 23.7L0.3 1.7C-0.1 1.3 -0.1 0.7 0.3 0.3C0.7 -0.1 1.3 -0.1 1.7 0.3L23.7 22.3C24.1 22.7 24.1 23.3 23.7 23.7C23.5 23.9 23.3 24 23 24Z"
    />
  </symbol>

  <!-- Email -->
  <symbol id="email-1" viewBox="0 0 24 24">
    <path
      xmlns="http://www.w3.org/2000/svg"
      fill-rule="evenodd"
      clip-rule="evenodd"
      d="M14.4999 1.28847C12.0822 0.72425 9.54474 0.994489 7.30009 2.05525C5.05545 3.116 3.23565 4.90489 2.13659 7.13104C1.03754 9.35718 0.723873 11.8897 1.24659 14.3167C1.76932 16.7437 3.09768 18.9225 5.0157 20.4988C6.93372 22.0752 9.32859 22.9563 11.8109 22.999C14.2932 23.0417 16.7169 22.2434 18.688 20.7339C19.1265 20.3982 19.2097 19.7705 18.874 19.332C18.5382 18.8935 17.9105 18.8103 17.472 19.1461C15.8593 20.3811 13.8762 21.0342 11.8453 20.9993C9.8143 20.9644 7.85487 20.2434 6.28558 18.9537C4.71629 17.664 3.62944 15.8813 3.20176 13.8956C2.77408 11.9098 3.03072 9.83781 3.92994 8.01642C4.82917 6.19503 6.3181 4.73139 8.15462 3.8635C9.99115 2.99561 12.0673 2.7745 14.0454 3.23614C16.0235 3.69777 17.7873 4.815 19.05 6.40615C20.3126 7.99728 20.9999 9.96882 21 12.0001V13C21 13.5304 20.7893 14.0391 20.4142 14.4142C20.0392 14.7893 19.5304 15 19 15C18.4696 15 17.9609 14.7893 17.5858 14.4142C17.2107 14.0391 17 13.5304 17 13V8.00001C17 7.44772 16.5523 7.00001 16 7.00001C15.4478 7.00001 15.0002 7.44753 15 7.99965C14.1643 7.37195 13.1256 7 12 7C9.23858 7 7 9.23858 7 12C7 14.7614 9.23858 17 12 17C13.4881 17 14.8244 16.3499 15.7403 15.3183C15.8687 15.4989 16.0128 15.6696 16.1716 15.8284C16.9217 16.5786 17.9391 17 19 17C20.0609 17 21.0783 16.5786 21.8284 15.8284C22.5786 15.0783 23 14.0609 23 13V11.9999C22.9999 9.51727 22.1599 7.10767 20.6166 5.16293C19.0734 3.21819 16.9176 1.85269 14.4999 1.28847ZM9 12C9 10.3431 10.3431 9 12 9C13.6569 9 15 10.3431 15 12C15 13.6569 13.6569 15 12 15C10.3431 15 9 13.6569 9 12Z"
    />
  </symbol>
  <symbol id="email-2" viewBox="0 0 24 24">
    <path
      xmlns="http://www.w3.org/2000/svg"
      fill-rule="evenodd"
      clip-rule="evenodd"
      d="M3.10658 5.55395C3.27196 5.22692 3.61204 5 4 5H20C20.388 5 20.728 5.22692 20.8934 5.55394L12 11.7793L3.10658 5.55395ZM1.00005 5.98212C0.99988 5.99231 0.999862 6.00249 1 6.01267V18C1 19.6523 2.34772 21 4 21H20C21.6523 21 23 19.6523 23 18V6.01177M21 7.92065V18C21 18.5477 20.5477 19 20 19H4C3.45228 19 3 18.5477 3 18V7.92065L11.4265 13.8192C11.7709 14.0603 12.2291 14.0603 12.5735 13.8192L21 7.92065ZM23 5.98322C22.9909 4.3386 21.6467 3 20 3H4C2.35368 3 1.00973 4.338 1.00005 5.98212"
    />
  </symbol>

  <!-- Layers -->
  <symbol id="layers" viewBox="0 0 24 24">
    <path
      fill-rule="evenodd"
      clip-rule="evenodd"
      d="M11.5528 1.10557C11.8343 0.964809 12.1657 0.964809 12.4472 1.10557L22.4472 6.10557C22.786 6.27496 23 6.62123 23 7C23 7.37877 22.786 7.72504 22.4472 7.89443L12.4472 12.8944C12.1657 13.0352 11.8343 13.0352 11.5528 12.8944L1.55278 7.89443C1.214 7.72504 0.999998 7.37877 0.999998 7C0.999998 6.62123 1.214 6.27496 1.55278 6.10557L11.5528 1.10557ZM4.23607 7L12 10.882L19.7639 7L12 3.11803L4.23607 7Z"
    />
    <path
      fill-rule="evenodd"
      clip-rule="evenodd"
      d="M1.10557 16.5528C1.35256 16.0588 1.95323 15.8586 2.44721 16.1056L12 20.882L21.5528 16.1056C22.0468 15.8586 22.6474 16.0588 22.8944 16.5528C23.1414 17.0468 22.9412 17.6474 22.4472 17.8944L12.4472 22.8944C12.1657 23.0352 11.8343 23.0352 11.5528 22.8944L1.55278 17.8944C1.05881 17.6474 0.858581 17.0468 1.10557 16.5528Z"
    />
    <path
      fill-rule="evenodd"
      clip-rule="evenodd"
      d="M1.10557 11.5528C1.35256 11.0588 1.95323 10.8586 2.44721 11.1056L12 15.882L21.5528 11.1056C22.0468 10.8586 22.6474 11.0588 22.8944 11.5528C23.1414 12.0468 22.9412 12.6474 22.4472 12.8944L12.4472 17.8944C12.1657 18.0352 11.8343 18.0352 11.5528 17.8944L1.55278 12.8944C1.05881 12.6474 0.858581 12.0468 1.10557 11.5528Z"
    />
  </symbol>
  <symbol id="layers-add" viewBox="0 0 24 24">
    <path
      xmlns="http://www.w3.org/2000/svg"
      fill-rule="evenodd"
      clip-rule="evenodd"
      d="M12.4472 1.10557L12.5406 1.15228C11.753 1.88795 11.1141 2.78089 10.674 3.78105L4.23607 7L10.674 10.219C11.1141 11.2191 11.753 12.1121 12.5406 12.8477L12.4472 12.8944C12.1657 13.0352 11.8343 13.0352 11.5528 12.8944L1.55279 7.89443C1.21401 7.72504 1.00001 7.37877 1.00001 7C1.00001 6.62123 1.21401 6.27496 1.55279 6.10557L11.5528 1.10557C11.8343 0.964809 12.1657 0.964809 12.4472 1.10557ZM12.4472 17.8944L18.2433 14.9964C18.1625 14.9988 18.0814 15 18 15C16.9237 15 15.8971 14.7875 14.9598 14.4021L12 15.882L2.44722 11.1056C1.95324 10.8586 1.35257 11.0588 1.10558 11.5528C0.858589 12.0468 1.05881 12.6474 1.55279 12.8944L11.5528 17.8944C11.8343 18.0352 12.1657 18.0352 12.4472 17.8944ZM2.44722 16.1056C1.95324 15.8586 1.35257 16.0588 1.10558 16.5528C0.858589 17.0468 1.05881 17.6474 1.55279 17.8944L11.5528 22.8944C11.8343 23.0352 12.1657 23.0352 12.4472 22.8944L22.4472 17.8944C22.9412 17.6474 23.1414 17.0468 22.8944 16.5528C22.6474 16.0588 22.0468 15.8586 21.5528 16.1056L12 20.882L2.44722 16.1056ZM24 7C24 10.3137 21.3137 13 18 13C14.6863 13 12 10.3137 12 7C12 3.68629 14.6863 1 18 1C21.3137 1 24 3.68629 24 7ZM18 3C17.4477 3 17 3.44772 17 4V6H15C14.4477 6 14 6.44772 14 7C14 7.55228 14.4477 8 15 8H17V10C17 10.5523 17.4477 11 18 11C18.5523 11 19 10.5523 19 10V8H21C21.5523 8 22 7.55228 22 7C22 6.44771 21.5523 6 21 6H19V4C19 3.44772 18.5523 3 18 3Z"
    />
  </symbol>

  <!-- Location -->
  <symbol id="map" viewBox="0 0 24 24">
    <path
      xmlns="http://www.w3.org/2000/svg"
      fill-rule="evenodd"
      clip-rule="evenodd"
      d="M8 1C7.81313 1 7.63824 1.05126 7.4886 1.14048L0.503861 5.13176C0.192286 5.3098 0 5.64114 0 6V22C0 22.3565 0.189758 22.686 0.498073 22.8649C0.806388 23.0438 1.18664 23.0451 1.49614 22.8682L8.03147 19.1338L15.5348 22.8854C15.6646 22.9538 15.8112 22.9944 15.9669 22.9995C15.9779 22.9998 15.989 23 16 23C16.1869 23 16.3618 22.9487 16.5114 22.8595L23.4961 18.8682C23.8077 18.6902 24 18.3589 24 18V2C24 1.64353 23.8102 1.31401 23.5019 1.13509C23.1936 0.956168 22.8134 0.954898 22.5039 1.13176L15.9685 4.86623L8.46521 1.11457C8.32624 1.04141 8.16796 1 8 1ZM17 20.2768L22 17.4197V3.72318L17 6.58032V20.2768ZM15 6.61803L9 3.61803V17.382L15 20.382V6.61803ZM2 6.58032L7 3.72318V17.4197L2 20.2768V6.58032Z"
    />
  </symbol>
  <symbol id="map-pin" viewBox="0 0 24 24">
    <path
      fill-rule="evenodd"
      clip-rule="evenodd"
      d="M6.34315 4.34315C7.84344 2.84285 9.87827 2 12 2C14.1217 2 16.1566 2.84285 17.6569 4.34315C19.1571 5.84344 20 7.87827 20 10C20 13.0981 17.9843 16.1042 15.774 18.4373C14.6894 19.5822 13.6013 20.5195 12.7833 21.1708C12.4789 21.4133 12.213 21.6152 12 21.7726C11.787 21.6152 11.5211 21.4133 11.2167 21.1708C10.3987 20.5195 9.31061 19.5822 8.22595 18.4373C6.01574 16.1042 4 13.0981 4 10C4 7.87827 4.84285 5.84344 6.34315 4.34315ZM11.4448 23.8317C11.445 23.8319 11.4453 23.8321 12 23L12.5547 23.8321C12.2188 24.056 11.7807 24.0556 11.4448 23.8317ZM11.4448 23.8317L12 23C12.5547 23.8321 12.5557 23.8314 12.556 23.8312L12.5581 23.8298L12.5648 23.8253L12.5877 23.8098C12.6072 23.7966 12.6349 23.7776 12.6704 23.753C12.7415 23.7038 12.8435 23.6321 12.9722 23.5392C13.2295 23.3534 13.5936 23.0822 14.0292 22.7354C14.8987 22.043 16.0606 21.0428 17.226 19.8127C19.5157 17.3958 22 13.9019 22 10C22 7.34784 20.9464 4.8043 19.0711 2.92893C17.1957 1.05357 14.6522 0 12 0C9.34784 0 6.8043 1.05357 4.92893 2.92893C3.05357 4.8043 2 7.34784 2 10C2 13.9019 4.48426 17.3958 6.77405 19.8127C7.93939 21.0428 9.10133 22.043 9.97082 22.7354C10.4064 23.0822 10.7705 23.3534 11.0278 23.5392C11.1565 23.6321 11.2585 23.7038 11.3296 23.753C11.3651 23.7776 11.3928 23.7966 11.4123 23.8098L11.4352 23.8253L11.4419 23.8298L11.4448 23.8317ZM10 10C10 8.89543 10.8954 8 12 8C13.1046 8 14 8.89543 14 10C14 11.1046 13.1046 12 12 12C10.8954 12 10 11.1046 10 10ZM12 6C9.79086 6 8 7.79086 8 10C8 12.2091 9.79086 14 12 14C14.2091 14 16 12.2091 16 10C16 7.79086 14.2091 6 12 6Z"
    />
  </symbol>

  <!-- Min max -->
  <symbol id="maximize" viewBox="0 0 24 24">
    <path
      xmlns="http://www.w3.org/2000/svg"
      fill-rule="evenodd"
      clip-rule="evenodd"
      d="M21.7092 2.29502C21.8041 2.3904 21.8757 2.50014 21.9241 2.61722C21.9727 2.73425 21.9996 2.8625 22 2.997L22 3V3.00069V9C22 9.55228 21.5523 10 21 10C20.4477 10 20 9.55228 20 9V5.41421L14.7071 10.7071C14.3166 11.0976 13.6834 11.0976 13.2929 10.7071C12.9024 10.3166 12.9024 9.68342 13.2929 9.29289L18.5858 4H15C14.4477 4 14 3.55228 14 3C14 2.44772 14.4477 2 15 2H20.9998H21C21.2751 2 21.5242 2.11106 21.705 2.29078L21.7092 2.29502ZM10.7071 14.7071L5.41421 20H9C9.55228 20 10 20.4477 10 21C10 21.5523 9.55228 22 9 22H3.00069H3L2.997 22C2.74301 21.9992 2.48924 21.9023 2.29502 21.7092L2.29078 21.705C2.19595 21.6096 2.12432 21.4999 2.07588 21.3828C2.02699 21.2649 2 21.1356 2 21V20.9998V15C2 14.4477 2.44772 14 3 14C3.55228 14 4 14.4477 4 15V18.5858L9.29289 13.2929C9.68342 12.9024 10.3166 12.9024 10.7071 13.2929C11.0976 13.6834 11.0976 14.3166 10.7071 14.7071Z"
    />
  </symbol>
  <symbol id="minimize" viewBox="0 0 24 24">
    <path
      xmlns="http://www.w3.org/2000/svg"
      fill-rule="evenodd"
      clip-rule="evenodd"
      d="M16.4142 9L21.7071 3.70711C22.0976 3.31658 22.0976 2.68342 21.7071 2.29289C21.3166 1.90237 20.6834 1.90237 20.2929 2.29289L15 7.58579V4C15 3.44772 14.5523 3 14 3C13.4477 3 13 3.44772 13 4V9.99983V10C13 10.1356 13.027 10.2649 13.0759 10.3828C13.1247 10.5007 13.197 10.6112 13.2929 10.7071C13.4874 10.9016 13.7421 10.9992 13.997 11L14 11H14.0007H20C20.5523 11 21 10.5523 21 10C21 9.44772 20.5523 9 20 9H16.4142ZM7.58579 15L2.29289 20.2929C1.90237 20.6834 1.90237 21.3166 2.29289 21.7071C2.68342 22.0976 3.31658 22.0976 3.70711 21.7071L9 16.4142V20C9 20.5523 9.44772 21 10 21C10.5523 21 11 20.5523 11 20V14.0007V14C11 13.999 11 13.998 11 13.997C10.9992 13.743 10.9023 13.4892 10.7092 13.295C10.7078 13.2936 10.7064 13.2922 10.705 13.2908C10.6096 13.196 10.4999 13.1243 10.3828 13.0759C10.2657 13.0273 10.1375 13.0004 10.003 13C10.002 13 10.001 13 10 13H9.99931H4C3.44772 13 3 13.4477 3 14C3 14.5523 3.44772 15 4 15H7.58579Z"
    />
  </symbol>

  <!-- Other -->
  <symbol id="search" viewBox="0 0 24 24">
    <path
      fill-rule="evenodd"
      clip-rule="evenodd"
      d="M11 4C7.13401 4 4 7.13401 4 11C4 14.866 7.13401 18 11 18C14.866 18 18 14.866 18 11C18 7.13401 14.866 4 11 4ZM2 11C2 6.02944 6.02944 2 11 2C15.9706 2 20 6.02944 20 11C20 15.9706 15.9706 20 11 20C6.02944 20 2 15.9706 2 11Z"
    />
    <path
      fill-rule="evenodd"
      clip-rule="evenodd"
      d="M15.9429 15.9429C16.3334 15.5524 16.9666 15.5524 17.3571 15.9429L21.7071 20.2929C22.0976 20.6834 22.0976 21.3166 21.7071 21.7071C21.3166 22.0977 20.6834 22.0977 20.2929 21.7071L15.9429 17.3571C15.5524 16.9666 15.5524 16.3334 15.9429 15.9429Z"
    />
  </symbol>
  <symbol id="bell" viewBox="0 0 24 24">
    <path
      fill-rule="evenodd"
      clip-rule="evenodd"
      d="M12 3C10.4087 3 8.88258 3.63214 7.75736 4.75736C6.63214 5.88258 6 7.4087 6 9V14C6 14.7082 5.81218 15.3971 5.46411 16H18.5359C18.1878 15.3971 18 14.7082 18 14V9C18 7.4087 17.3679 5.88258 16.2426 4.75736C15.1174 3.63214 13.5913 3 12 3ZM22 16C21.4696 16 20.9609 15.7893 20.5858 15.4142C20.2107 15.0391 20 14.5304 20 14V9C20 6.87827 19.1571 4.84344 17.6569 3.34315C16.1566 1.84285 14.1217 1 12 1C9.87827 1 7.84344 1.84285 6.34315 3.34315C4.84285 4.84344 4 6.87827 4 9V14C4 14.5304 3.78929 15.0391 3.41421 15.4142C3.03914 15.7893 2.53043 16 2 16C1.44772 16 1 16.4477 1 17C1 17.5523 1.44772 18 2 18H22V16ZM9.76823 20.135C10.246 19.8579 10.8579 20.0205 11.135 20.4982C11.2229 20.6498 11.3491 20.7756 11.5009 20.863C11.6527 20.9504 11.8248 20.9965 12 20.9965C12.1752 20.9965 12.3473 20.9504 12.4991 20.863C12.6509 20.7756 12.7771 20.6498 12.865 20.4982C13.1421 20.0205 13.754 19.8579 14.2318 20.135C14.7095 20.4121 14.8721 21.024 14.595 21.5018C14.3313 21.9564 13.9528 22.3337 13.4973 22.5961C13.0419 22.8584 12.5256 22.9965 12 22.9965C11.4744 22.9965 10.9581 22.8584 10.5027 22.5961C10.0472 22.3337 9.66872 21.9564 9.405 21.5018C9.12788 21.024 9.2905 20.4121 9.76823 20.135Z"
    />
  </symbol>
  <symbol id="calendar" viewBox="0 0 24 24">
    <path
      fill-rule="evenodd"
      clip-rule="evenodd"
      d="M5 5C4.44772 5 4 5.44772 4 6V20C4 20.5523 4.44772 21 5 21H19C19.5523 21 20 20.5523 20 20V6C20 5.44772 19.5523 5 19 5H5ZM2 6C2 4.34315 3.34315 3 5 3H19C20.6569 3 22 4.34315 22 6V20C22 21.6569 20.6569 23 19 23H5C3.34315 23 2 21.6569 2 20V6Z"
    />
    <path
      fill-rule="evenodd"
      clip-rule="evenodd"
      d="M16 1C16.5523 1 17 1.44772 17 2V6C17 6.55228 16.5523 7 16 7C15.4477 7 15 6.55228 15 6V2C15 1.44772 15.4477 1 16 1Z"
    />
    <path
      fill-rule="evenodd"
      clip-rule="evenodd"
      d="M8 1C8.55228 1 9 1.44772 9 2V6C9 6.55228 8.55228 7 8 7C7.44772 7 7 6.55228 7 6V2C7 1.44772 7.44772 1 8 1Z"
    />
    <path
      fill-rule="evenodd"
      clip-rule="evenodd"
      d="M2 10C2 9.44771 2.44772 9 3 9H21C21.5523 9 22 9.44771 22 10C22 10.5523 21.5523 11 21 11H3C2.44772 11 2 10.5523 2 10Z"
    />
  </symbol>
  <symbol id="apps" viewBox="0 0 24 24">
    <path
      xmlns="http://www.w3.org/2000/svg"
      fill-rule="evenodd"
      clip-rule="evenodd"
      d="M2 4.5C2 3.11929 3.11929 2 4.5 2C5.88071 2 7 3.11929 7 4.5C7 5.88071 5.88071 7 4.5 7C3.11929 7 2 5.88071 2 4.5ZM2 12C2 10.6193 3.11929 9.5 4.5 9.5C5.88071 9.5 7 10.6193 7 12C7 13.3807 5.88071 14.5 4.5 14.5C3.11929 14.5 2 13.3807 2 12ZM4.5 17C3.11929 17 2 18.1193 2 19.5C2 20.8807 3.11929 22 4.5 22C5.88071 22 7 20.8807 7 19.5C7 18.1193 5.88071 17 4.5 17ZM9.5 4.5C9.5 3.11929 10.6193 2 12 2C13.3807 2 14.5 3.11929 14.5 4.5C14.5 5.88071 13.3807 7 12 7C10.6193 7 9.5 5.88071 9.5 4.5ZM12 9.5C10.6193 9.5 9.5 10.6193 9.5 12C9.5 13.3807 10.6193 14.5 12 14.5C13.3807 14.5 14.5 13.3807 14.5 12C14.5 10.6193 13.3807 9.5 12 9.5ZM9.5 19.5C9.5 18.1193 10.6193 17 12 17C13.3807 17 14.5 18.1193 14.5 19.5C14.5 20.8807 13.3807 22 12 22C10.6193 22 9.5 20.8807 9.5 19.5ZM19.5 2C18.1193 2 17 3.11929 17 4.5C17 5.88071 18.1193 7 19.5 7C20.8807 7 22 5.88071 22 4.5C22 3.11929 20.8807 2 19.5 2ZM17 12C17 10.6193 18.1193 9.5 19.5 9.5C20.8807 9.5 22 10.6193 22 12C22 13.3807 20.8807 14.5 19.5 14.5C18.1193 14.5 17 13.3807 17 12ZM19.5 17C18.1193 17 17 18.1193 17 19.5C17 20.8807 18.1193 22 19.5 22C20.8807 22 22 20.8807 22 19.5C22 18.1193 20.8807 17 19.5 17Z"
    />
  </symbol>
  <symbol id="clipboard" viewBox="0 0 24 24">
    <path
      fill-rule="evenodd"
      clip-rule="evenodd"
      d="M6 5C5.73478 5 5.48043 5.10536 5.29289 5.29289C5.10536 5.48043 5 5.73478 5 6V20C5 20.2652 5.10536 20.5196 5.29289 20.7071C5.48043 20.8946 5.73478 21 6 21H18C18.2652 21 18.5196 20.8946 18.7071 20.7071C18.8946 20.5196 19 20.2652 19 20V6C19 5.73478 18.8946 5.48043 18.7071 5.29289C18.5196 5.10536 18.2652 5 18 5H16C15.4477 5 15 4.55228 15 4C15 3.44772 15.4477 3 16 3H18C18.7956 3 19.5587 3.31607 20.1213 3.87868C20.6839 4.44129 21 5.20435 21 6V20C21 20.7957 20.6839 21.5587 20.1213 22.1213C19.5587 22.6839 18.7957 23 18 23H6C5.20435 23 4.44129 22.6839 3.87868 22.1213C3.31607 21.5587 3 20.7957 3 20V6C3 5.20435 3.31607 4.44129 3.87868 3.87868C4.44129 3.31607 5.20435 3 6 3H8C8.55228 3 9 3.44772 9 4C9 4.55228 8.55228 5 8 5H6Z"
    />
    <path
      fill-rule="evenodd"
      clip-rule="evenodd"
      d="M7 3C7 1.89543 7.89543 1 9 1H15C16.1046 1 17 1.89543 17 3V5C17 6.10457 16.1046 7 15 7H9C7.89543 7 7 6.10457 7 5V3ZM15 3H9V5H15V3Z"
    />
  </symbol>
  <symbol id="clock" viewBox="0 0 24 24">
    <path
      fill-rule="evenodd"
      clip-rule="evenodd"
      d="M12 3C7.02944 3 3 7.02944 3 12C3 16.9706 7.02944 21 12 21C16.9706 21 21 16.9706 21 12C21 7.02944 16.9706 3 12 3ZM1 12C1 5.92487 5.92487 1 12 1C18.0751 1 23 5.92487 23 12C23 18.0751 18.0751 23 12 23C5.92487 23 1 18.0751 1 12Z"
    />
    <path
      fill-rule="evenodd"
      clip-rule="evenodd"
      d="M12 5C12.5523 5 13 5.44772 13 6V11.382L16.4472 13.1056C16.9412 13.3526 17.1414 13.9532 16.8944 14.4472C16.6474 14.9412 16.0468 15.1414 15.5528 14.8944L11.5528 12.8944C11.214 12.725 11 12.3788 11 12V6C11 5.44772 11.4477 5 12 5Z"
    />
  </symbol>
  <symbol id="copy" viewBox="0 0 24 24">
    <path
      xmlns="http://www.w3.org/2000/svg"
      fill-rule="evenodd"
      clip-rule="evenodd"
      d="M3.29289 3.29289C3.48043 3.10536 3.73478 3 4 3H13C13.2652 3 13.5196 3.10536 13.7071 3.29289C13.8946 3.48043 14 3.73478 14 4V5C14 5.55228 14.4477 6 15 6C15.5523 6 16 5.55228 16 5V4C16 3.20435 15.6839 2.44129 15.1213 1.87868C14.5587 1.31607 13.7956 1 13 1H4C3.20435 1 2.44129 1.31607 1.87868 1.87868C1.31607 2.44129 1 3.20435 1 4V13C1 13.7956 1.31607 14.5587 1.87868 15.1213C2.44129 15.6839 3.20435 16 4 16H5C5.55228 16 6 15.5523 6 15C6 14.4477 5.55228 14 5 14H4C3.73478 14 3.48043 13.8946 3.29289 13.7071C3.10536 13.5196 3 13.2652 3 13V4C3 3.73478 3.10536 3.48043 3.29289 3.29289ZM10 11C10 10.4477 10.4477 10 11 10H20C20.5523 10 21 10.4477 21 11V20C21 20.5523 20.5523 21 20 21H11C10.4477 21 10 20.5523 10 20V11ZM11 8C9.34315 8 8 9.34315 8 11V20C8 21.6569 9.34315 23 11 23H20C21.6569 23 23 21.6569 23 20V11C23 9.34315 21.6569 8 20 8H11Z"
    />
  </symbol>
  <symbol id="drag" viewBox="0 0 24 24">
    <path
      xmlns="http://www.w3.org/2000/svg"
      fill-rule="evenodd"
      clip-rule="evenodd"
      d="M8 3C6.89543 3 6 3.89543 6 5C6 6.10457 6.89543 7 8 7C9.10457 7 10 6.10457 10 5C10 3.89543 9.10457 3 8 3ZM8 10C6.89543 10 6 10.8954 6 12C6 13.1046 6.89543 14 8 14C9.10457 14 10 13.1046 10 12C10 10.8954 9.10457 10 8 10ZM6 19C6 17.8954 6.89543 17 8 17C9.10457 17 10 17.8954 10 19C10 20.1046 9.10457 21 8 21C6.89543 21 6 20.1046 6 19ZM15 10C13.8954 10 13 10.8954 13 12C13 13.1046 13.8954 14 15 14C16.1046 14 17 13.1046 17 12C17 10.8954 16.1046 10 15 10ZM13 5C13 3.89543 13.8954 3 15 3C16.1046 3 17 3.89543 17 5C17 6.10457 16.1046 7 15 7C13.8954 7 13 6.10457 13 5ZM15 17C13.8954 17 13 17.8954 13 19C13 20.1046 13.8954 21 15 21C16.1046 21 17 20.1046 17 19C17 17.8954 16.1046 17 15 17Z"
    />
  </symbol>
  <symbol id="edit" viewBox="0 0 24 24">
    <path
      fill-rule="evenodd"
      clip-rule="evenodd"
      d="M14.7071 1.29289C14.3166 0.902369 13.6834 0.902369 13.2929 1.29289L2.29289 12.2929C2.10536 12.4804 2 12.7348 2 13V17C2 17.5523 2.44772 18 3 18H7C7.26522 18 7.51957 17.8946 7.70711 17.7071L18.7071 6.70711C19.0976 6.31658 19.0976 5.68342 18.7071 5.29289L14.7071 1.29289ZM4 16V13.4142L14 3.41421L16.5858 6L6.58579 16H4ZM3 21C2.44772 21 2 21.4477 2 22C2 22.5523 2.44772 23 3 23H21C21.5523 23 22 22.5523 22 22C22 21.4477 21.5523 21 21 21H3Z"
    />
  </symbol>
  <symbol id="file-text" viewBox="0 0 24 24">
    <path
      fill-rule="evenodd"
      clip-rule="evenodd"
      d="M3.87868 1.87868C4.44129 1.31607 5.20435 1 6 1H14C14.2652 1 14.5196 1.10536 14.7071 1.29289L20.7071 7.29289C20.8946 7.48043 21 7.73478 21 8V20C21 20.7957 20.6839 21.5587 20.1213 22.1213C19.5587 22.6839 18.7957 23 18 23H6C5.20435 23 4.44129 22.6839 3.87868 22.1213C3.31607 21.5587 3 20.7957 3 20V4C3 3.20435 3.31607 2.44129 3.87868 1.87868ZM6 3C5.73478 3 5.48043 3.10536 5.29289 3.29289C5.10536 3.48043 5 3.73478 5 4V20C5 20.2652 5.10536 20.5196 5.29289 20.7071C5.48043 20.8946 5.73478 21 6 21H18C18.2652 21 18.5196 20.8946 18.7071 20.7071C18.8946 20.5196 19 20.2652 19 20V8.41421L13.5858 3H6Z"
    />
    <path
      fill-rule="evenodd"
      clip-rule="evenodd"
      d="M14 1C14.5523 1 15 1.44772 15 2V7H20C20.5523 7 21 7.44772 21 8C21 8.55228 20.5523 9 20 9H14C13.4477 9 13 8.55228 13 8V2C13 1.44772 13.4477 1 14 1Z"
    />
    <path
      fill-rule="evenodd"
      clip-rule="evenodd"
      d="M7 13C7 12.4477 7.44772 12 8 12H16C16.5523 12 17 12.4477 17 13C17 13.5523 16.5523 14 16 14H8C7.44772 14 7 13.5523 7 13Z"
    />
    <path
      fill-rule="evenodd"
      clip-rule="evenodd"
      d="M7 17C7 16.4477 7.44772 16 8 16H16C16.5523 16 17 16.4477 17 17C17 17.5523 16.5523 18 16 18H8C7.44772 18 7 17.5523 7 17Z"
    />
    <path
      fill-rule="evenodd"
      clip-rule="evenodd"
      d="M7 9C7 8.44772 7.44772 8 8 8H10C10.5523 8 11 8.44772 11 9C11 9.55228 10.5523 10 10 10H8C7.44772 10 7 9.55228 7 9Z"
    />
  </symbol>
  <symbol id="filter" viewBox="0 0 24 24">
    <path
      fill-rule="evenodd"
      clip-rule="evenodd"
      d="M6.50001 4.90001C5.06407 4.90001 3.90001 6.06407 3.90001 7.50001C3.90001 8.93595 5.06407 10.1 6.50001 10.1C7.93595 10.1 9.10001 8.93595 9.10001 7.50001C9.10001 6.06407 7.93595 4.90001 6.50001 4.90001ZM6.50001 3.10001C8.62162 3.10001 10.3925 4.60161 10.8079 6.60001H19C19.4971 6.60001 19.9 7.00295 19.9 7.50001C19.9 7.99706 19.4971 8.40001 19 8.40001H10.8079C10.3925 10.3984 8.62162 11.9 6.50001 11.9C4.06995 11.9 2.10001 9.93006 2.10001 7.50001C2.10001 5.06995 4.06995 3.10001 6.50001 3.10001ZM5.00001 15.6C4.50295 15.6 4.10001 16.0029 4.10001 16.5C4.10001 16.9971 4.50295 17.4 5.00001 17.4H13.1921C13.6075 19.3984 15.3784 20.9 17.5 20.9C19.9301 20.9 21.9 18.9301 21.9 16.5C21.9 14.07 19.9301 12.1 17.5 12.1C15.3784 12.1 13.6075 13.6016 13.1921 15.6H5.00001ZM14.9 16.5C14.9 17.9359 16.0641 19.1 17.5 19.1C18.9359 19.1 20.1 17.9359 20.1 16.5C20.1 15.0641 18.9359 13.9 17.5 13.9C16.0641 13.9 14.9 15.0641 14.9 16.5Z"
    />
  </symbol>
  <symbol id="folder" viewBox="0 0 24 24">
    <path
      xmlns="http://www.w3.org/2000/svg"
      fill-rule="evenodd"
      clip-rule="evenodd"
      d="M4 4C3.73478 4 3.48043 4.10536 3.29289 4.29289C3.10536 4.48043 3 4.73478 3 5V19C3 19.2652 3.10536 19.5196 3.29289 19.7071C3.48043 19.8946 3.73478 20 4 20H20C20.2652 20 20.5196 19.8946 20.7071 19.7071C20.8946 19.5196 21 19.2652 21 19V8C21 7.73478 20.8946 7.48043 20.7071 7.29289C20.5196 7.10536 20.2652 7 20 7H11C10.6656 7 10.3534 6.8329 10.1679 6.5547L8.46482 4H4ZM1.87868 2.87868C2.44129 2.31607 3.20435 2 4 2H9C9.33435 2 9.64658 2.1671 9.83205 2.4453L11.5352 5H20C20.7957 5 21.5587 5.31607 22.1213 5.87868C22.6839 6.44129 23 7.20435 23 8V19C23 19.7957 22.6839 20.5587 22.1213 21.1213C21.5587 21.6839 20.7957 22 20 22H4C3.20435 22 2.44129 21.6839 1.87868 21.1213C1.31607 20.5587 1 19.7957 1 19V5C1 4.20435 1.31607 3.44129 1.87868 2.87868Z"
    />
  </symbol>
  <symbol id="hashtag" viewBox="0 0 24 24">
    <path
      fill-rule="evenodd"
      clip-rule="evenodd"
      d="M17.9919 0.882866C20.4044 2.18728 21.8873 4.86612 23.0378 8.71243C24.1896 12.5387 24.4093 15.581 23.0973 17.994C21.787 20.4038 19.1108 21.8868 15.2883 23.0376C11.4617 24.1896 8.41921 24.4094 6.00607 23.0973C3.59627 21.787 2.11327 19.1108 0.962453 15.2883C-0.189574 11.4617 -0.409385 8.41924 0.902718 6.00609C2.213 3.59629 4.88918 2.1133 8.71172 0.962478C12.5346 -0.188453 15.5777 -0.422404 17.9919 0.882866ZM17.0406 2.64218C15.3673 1.73745 13.0054 1.7585 9.28828 2.87757C5.57082 3.99675 3.572 5.28376 2.65978 6.96146C1.74938 8.63581 1.75957 10.9983 2.87755 14.7117C3.99673 18.4292 5.28373 20.428 6.96143 21.3402C8.63579 22.2506 10.9983 22.2404 14.7117 21.1225C18.4292 20.0033 20.428 18.7163 21.3402 17.0386C22.2506 15.3642 22.2404 13.0017 21.1225 9.2883L21.1219 9.28656C20.0024 5.54344 18.7153 3.54764 17.0406 2.64218ZM12.2445 5.04447C12.7667 4.86471 13.3358 5.14232 13.5155 5.66453L14.1672 7.55758L16.0645 6.90446C16.5867 6.7247 17.1558 7.00231 17.3356 7.52452C17.5153 8.04673 17.2377 8.61579 16.7155 8.79555L14.8182 9.44867L15.7914 12.2761L17.6845 11.6244C18.2067 11.4447 18.7758 11.7223 18.9555 12.2445C19.1353 12.7667 18.8577 13.3358 18.3355 13.5155L16.4424 14.1672L17.0955 16.0645C17.2753 16.5867 16.9977 17.1558 16.4755 17.3356C15.9533 17.5153 15.3842 17.2377 15.2045 16.7155L14.5513 14.8181L11.7239 15.7914L12.3756 17.6845C12.5553 18.2067 12.2777 18.7758 11.7555 18.9556C11.2333 19.1353 10.6642 18.8577 10.4845 18.3355L9.8328 16.4424L7.93548 17.0955C7.41327 17.2753 6.84421 16.9977 6.66445 16.4755C6.48469 15.9532 6.7623 15.3842 7.28451 15.2044L9.18182 14.5513L8.20854 11.7239L6.31549 12.3756C5.79328 12.5553 5.22422 12.2777 5.04446 11.7555C4.8647 11.2333 5.14231 10.6642 5.66452 10.4845L7.55757 9.83281L6.90446 7.9355C6.7247 7.41329 7.00231 6.84423 7.52452 6.66447C8.04673 6.48471 8.61579 6.76232 8.79555 7.28453L9.44866 9.18184L12.2761 8.20855L11.6245 6.3155C11.4447 5.79329 11.7223 5.22423 12.2445 5.04447ZM11.0729 13.9003L13.9003 12.9271L12.9271 10.0996L10.0996 11.0729L11.0729 13.9003Z"
    />
  </symbol>
  <symbol id="history" viewBox="0 0 24 24">
    <path
      fill-rule="evenodd"
      clip-rule="evenodd"
      d="M5.01111 11.5747L6.29287 10.2929C6.6834 9.90236 7.31656 9.90236 7.70709 10.2929C8.09761 10.6834 8.09761 11.3166 7.70709 11.7071L4.70709 14.7071C4.51955 14.8946 4.2652 15 3.99998 15C3.73476 15 3.48041 14.8946 3.29287 14.7071L0.292878 11.7071C-0.0976464 11.3166 -0.0976464 10.6834 0.292878 10.2929C0.683402 9.90236 1.31656 9.90236 1.70709 10.2929L3.00809 11.5939C3.22116 6.25933 7.61316 2 13 2C18.5229 2 23 6.47715 23 12C23 17.5228 18.5229 22 13 22C9.85816 22 7.05428 20.5499 5.22262 18.2864C4.87521 17.8571 4.94162 17.2274 5.37095 16.88C5.80027 16.5326 6.42995 16.599 6.77736 17.0283C8.24561 18.8427 10.4873 20 13 20C17.4183 20 21 16.4183 21 12C21 7.58172 17.4183 4 13 4C8.7244 4 5.2322 7.35412 5.01111 11.5747ZM13 5C13.5523 5 14 5.44772 14 6V11.5858L16.7071 14.2929C17.0976 14.6834 17.0976 15.3166 16.7071 15.7071C16.3166 16.0976 15.6834 16.0976 15.2929 15.7071L12.2929 12.7071C12.1054 12.5196 12 12.2652 12 12V6C12 5.44772 12.4477 5 13 5Z"
    />
  </symbol>
  <symbol id="link" viewBox="0 0 24 24">
    <path
      fill-rule="evenodd"
      clip-rule="evenodd"
      d="M12.7753 2.75071C13.9069 1.65776 15.4225 1.05299 16.9957 1.06666C18.5689 1.08033 20.0738 1.71135 21.1862 2.8238C22.2986 3.93624 22.9297 5.44112 22.9433 7.0143C22.957 8.58748 22.3522 10.1031 21.2593 11.2347L21.2471 11.2471L18.2472 14.247C17.639 14.8555 16.907 15.326 16.1009 15.6267C15.2947 15.9274 14.4334 16.0512 13.5752 15.9898C12.717 15.9283 11.8821 15.683 11.1271 15.2705C10.3721 14.858 9.71458 14.2879 9.19924 13.599C8.86843 13.1567 8.95877 12.53 9.40102 12.1992C9.84327 11.8684 10.47 11.9588 10.8008 12.401C11.1443 12.8603 11.5827 13.2404 12.086 13.5154C12.5894 13.7904 13.146 13.9539 13.7181 13.9949C14.2902 14.0359 14.8644 13.9533 15.4018 13.7528C15.9393 13.5524 16.4273 13.2387 16.8328 12.833L19.8264 9.83937C20.5514 9.0856 20.9525 8.07773 20.9434 7.03168C20.9343 5.98289 20.5136 4.97964 19.772 4.23801C19.0304 3.49638 18.0271 3.0757 16.9783 3.06659C15.9318 3.05749 14.9235 3.4589 14.1696 4.18453L12.455 5.88916C12.0634 6.27855 11.4302 6.2767 11.0408 5.88504C10.6515 5.49338 10.6533 4.86021 11.045 4.47083L12.765 2.76083L12.7753 2.75071Z"
    />
    <path
      fill-rule="evenodd"
      clip-rule="evenodd"
      d="M7.89915 8.37328C8.70526 8.07258 9.56661 7.94876 10.4248 8.01022C11.283 8.07168 12.1179 8.31698 12.8729 8.72949C13.6279 9.142 14.2854 9.71206 14.8008 10.401C15.1316 10.8433 15.0412 11.47 14.599 11.8008C14.1567 12.1316 13.53 12.0412 13.1992 11.599C12.8557 11.1397 12.4173 10.7596 11.914 10.4846C11.4106 10.2096 10.854 10.0461 10.2819 10.0051C9.7098 9.96413 9.13557 10.0467 8.59816 10.2471C8.06075 10.4476 7.57274 10.7613 7.16724 11.167L4.17359 14.1606C3.44856 14.9144 3.0475 15.9223 3.05659 16.9683C3.06571 18.0171 3.48638 19.0203 4.22802 19.762C4.96965 20.5036 5.9729 20.9243 7.02168 20.9334C8.06773 20.9425 9.0756 20.5414 9.82937 19.8164L11.5329 18.1129C11.9234 17.7224 12.5566 17.7224 12.9471 18.1129C13.3376 18.5034 13.3376 19.1366 12.9471 19.5271L11.2371 21.2371L11.2247 21.2493C10.0931 22.3422 8.57749 22.947 7.00431 22.9333C5.43113 22.9197 3.92625 22.2886 2.8138 21.1762C1.70135 20.0637 1.07034 18.5589 1.05667 16.9857C1.043 15.4125 1.64776 13.8969 2.74071 12.7653L2.75289 12.7529L5.75277 9.75302C5.75272 9.75306 5.75281 9.75297 5.75277 9.75302C6.361 9.1446 7.0931 8.67396 7.89915 8.37328Z"
    />
  </symbol>
  <symbol id="list" viewBox="0 0 24 24">
    <path
      d="M21 6.99999H8C7.4 6.99999 7 6.59999 7 5.99999C7 5.39999 7.4 4.99999 8 4.99999H21C21.6 4.99999 22 5.39999 22 5.99999C22 6.59999 21.6 6.99999 21 6.99999Z"
    />
    <path d="M21 13H8C7.4 13 7 12.6 7 12C7 11.4 7.4 11 8 11H21C21.6 11 22 11.4 22 12C22 12.6 21.6 13 21 13Z" />
    <path d="M21 19H8C7.4 19 7 18.6 7 18C7 17.4 7.4 17 8 17H21C21.6 17 22 17.4 22 18C22 18.6 21.6 19 21 19Z" />
    <path
      d="M3 6.99999C2.9 6.99999 2.9 6.99999 2.8 6.99999C2.7 6.99999 2.7 6.99999 2.6 6.89999C2.5 6.89999 2.5 6.79999 2.4 6.79999C2.3 6.79999 2.3 6.69999 2.3 6.69999C2.2 6.59999 2.1 6.49999 2.1 6.39999C2 6.29999 2 6.09999 2 5.99999C2 5.89999 2 5.69999 2.1 5.59999C2.2 5.49999 2.2 5.39999 2.3 5.29999C2.6 4.99999 3 4.89999 3.4 5.09999C3.5 5.19999 3.6 5.19999 3.7 5.29999C3.9 5.49999 4 5.69999 4 5.99999C4 6.29999 3.9 6.49999 3.7 6.69999C3.5 6.89999 3.3 6.99999 3 6.99999Z"
    />
    <path
      d="M3 13C2.7 13 2.5 12.9 2.3 12.7C2.1 12.5 2 12.3 2 12C2 11.9 2 11.9 2 11.8C2 11.7 2 11.7 2.1 11.6C2.1 11.5 2.2 11.5 2.2 11.4C2.2 11.3 2.3 11.3 2.3 11.3C2.4 11.2 2.5 11.1 2.6 11.1C3 10.9 3.4 11 3.7 11.3L3.8 11.4C3.8 11.5 3.9 11.5 3.9 11.6C3.9 11.7 3.9 11.7 4 11.8C4 11.9 4 11.9 4 12C4 12.3 3.9 12.5 3.7 12.7C3.5 12.9 3.3 13 3 13Z"
    />
    <path
      d="M3 19C2.7 19 2.5 18.9 2.3 18.7C2.1 18.5 2 18.3 2 18C2 17.9 2 17.7 2.1 17.6C2.2 17.5 2.2 17.4 2.3 17.3C2.7 16.9 3.3 16.9 3.7 17.3C3.9 17.5 4 17.7 4 18C4 18.3 3.9 18.5 3.7 18.7C3.5 18.9 3.3 19 3 19Z"
    />
  </symbol>
  <symbol id="lock" viewBox="0 0 24 24">
    <path
      fill-rule="evenodd"
      clip-rule="evenodd"
      d="M9.17157 4.17157C9.92172 3.42143 10.9391 3 12 3C13.0609 3 14.0783 3.42143 14.8284 4.17157C15.5786 4.92172 16 5.93913 16 7V10H8V7C8 5.93913 8.42143 4.92172 9.17157 4.17157ZM6 10V7C6 5.4087 6.63214 3.88258 7.75736 2.75736C8.88258 1.63214 10.4087 1 12 1C13.5913 1 15.1174 1.63214 16.2426 2.75736C17.3679 3.88258 18 5.4087 18 7V10H19C20.6569 10 22 11.3431 22 13V20C22 21.6569 20.6569 23 19 23H5C3.34315 23 2 21.6569 2 20V13C2 11.3431 3.34315 10 5 10H6ZM17 12H7H5C4.44772 12 4 12.4477 4 13V20C4 20.5523 4.44772 21 5 21H19C19.5523 21 20 20.5523 20 20V13C20 12.4477 19.5523 12 19 12H17Z"
    />
  </symbol>
  <symbol id="logout" viewBox="0 0 24 24">
    <path
      fill-rule="evenodd"
      clip-rule="evenodd"
      d="M5 4C4.73478 4 4.48043 4.10536 4.29289 4.29289C4.10536 4.48043 4 4.73478 4 5V19C4 19.2652 4.10536 19.5196 4.29289 19.7071C4.48043 19.8946 4.73478 20 5 20H9C9.55228 20 10 20.4477 10 21C10 21.5523 9.55228 22 9 22H5C4.20435 22 3.44129 21.6839 2.87868 21.1213C2.31607 20.5587 2 19.7957 2 19V5C2 4.20435 2.31607 3.44129 2.87868 2.87868C3.44129 2.31607 4.20435 2 5 2H9C9.55228 2 10 2.44772 10 3C10 3.55228 9.55228 4 9 4H5Z"
    />
    <path
      fill-rule="evenodd"
      clip-rule="evenodd"
      d="M15.2929 6.29289C15.6834 5.90237 16.3166 5.90237 16.7071 6.29289L21.7071 11.2929C22.0976 11.6834 22.0976 12.3166 21.7071 12.7071L16.7071 17.7071C16.3166 18.0976 15.6834 18.0976 15.2929 17.7071C14.9024 17.3166 14.9024 16.6834 15.2929 16.2929L19.5858 12L15.2929 7.70711C14.9024 7.31658 14.9024 6.68342 15.2929 6.29289Z"
    />
    <path
      fill-rule="evenodd"
      clip-rule="evenodd"
      d="M8 12C8 11.4477 8.44772 11 9 11H21C21.5523 11 22 11.4477 22 12C22 12.5523 21.5523 13 21 13H9C8.44772 13 8 12.5523 8 12Z"
    />
  </symbol>
  <symbol id="message-1" viewBox="0 0 24 24">
    <path
      xmlns="http://www.w3.org/2000/svg"
      fill-rule="evenodd"
      clip-rule="evenodd"
      d="M5 4C4.73478 4 4.48043 4.10536 4.29289 4.29289C4.10536 4.48043 4 4.73478 4 5V18.5858L6.29289 16.2929C6.48043 16.1054 6.73478 16 7 16H19C19.2652 16 19.5196 15.8946 19.7071 15.7071C19.8946 15.5196 20 15.2652 20 15V5C20 4.73478 19.8946 4.48043 19.7071 4.29289C19.5196 4.10536 19.2652 4 19 4H5ZM2.87868 2.87868C3.44129 2.31607 4.20435 2 5 2H19C19.7957 2 20.5587 2.31607 21.1213 2.87868C21.6839 3.44129 22 4.20435 22 5V15C22 15.7957 21.6839 16.5587 21.1213 17.1213C20.5587 17.6839 19.7957 18 19 18H7.41421L3.70711 21.7071C3.42111 21.9931 2.99099 22.0787 2.61732 21.9239C2.24364 21.7691 2 21.4045 2 21V5C2 4.20435 2.31607 3.44129 2.87868 2.87868Z"
    />
  </symbol>
  <symbol id="mobile" viewBox="0 0 24 24">
    <path
      xmlns="http://www.w3.org/2000/svg"
      fill-rule="evenodd"
      clip-rule="evenodd"
      d="M7 3C6.44772 3 6 3.44772 6 4V20C6 20.5523 6.44772 21 7 21H17C17.5523 21 18 20.5523 18 20V4C18 3.44772 17.5523 3 17 3H15C15 3.55228 14.5523 4 14 4H10C9.44772 4 9 3.55228 9 3H7ZM4 4C4 2.34315 5.34315 1 7 1H17C18.6569 1 20 2.34315 20 4V20C20 21.6569 18.6569 23 17 23H7C5.34315 23 4 21.6569 4 20V4ZM9 18C8.44772 18 8 18.4477 8 19C8 19.5523 8.44772 20 9 20H15C15.5523 20 16 19.5523 16 19C16 18.4477 15.5523 18 15 18H9Z"
    />
  </symbol>
  <symbol id="moon" viewBox="0 0 24 24">
    <path
      d="M12.1 22C11.8 22 11.5 22 11.2 22C5.7 21.5 1.7 16.6 2.2 11.1C2.6 6.30001 6.4 2.50001 11.2 2.10001C11.6 2.10001 12 2.30001 12.2 2.60001C12.4 2.90001 12.4 3.40001 12.1 3.70001C11.1 5.00001 10.8 6.60001 11 8.20001C11.2 9.80001 12.1 11.2 13.4 12.1C15.5 13.7 18.4 13.7 20.5 12.1C20.8 11.9 21.2 11.8 21.6 12C21.9 12.2 22.1 12.6 22.1 13C21.9 15.7 20.6 18.1 18.5 19.8C16.6 21.2 14.4 22 12.1 22ZM9.3 4.40001C6.4 5.40001 4.4 8.00001 4.1 11.2C3.7 15.6 6.9 19.5 11.3 19.9C13.4 20.1 15.5 19.5 17.1 18.1C18.2 17.2 19 16 19.5 14.7C17 15.6 14.2 15.2 12 13.6C10.3 12.3 9.2 10.5 8.8 8.40001C8.7 7.00001 8.9 5.70001 9.3 4.40001Z"
    />
  </symbol>
  <symbol id="more-horizontal" viewBox="0 0 24 24">
    <path
      xmlns="http://www.w3.org/2000/svg"
      fill-rule="evenodd"
      clip-rule="evenodd"
      d="M5 10C3.89543 10 3 10.8954 3 12C3 13.1046 3.89543 14 5 14C6.10457 14 7 13.1046 7 12C7 10.8954 6.10457 10 5 10ZM10 12C10 10.8954 10.8954 10 12 10C13.1046 10 14 10.8954 14 12C14 13.1046 13.1046 14 12 14C10.8954 14 10 13.1046 10 12ZM17 12C17 10.8954 17.8954 10 19 10C20.1046 10 21 10.8954 21 12C21 13.1046 20.1046 14 19 14C17.8954 14 17 13.1046 17 12Z"
    />
  </symbol>
  <symbol id="more-vertical" viewBox="0 0 24 24">
    <path
      xmlns="http://www.w3.org/2000/svg"
      fill-rule="evenodd"
      clip-rule="evenodd"
      d="M10 5C10 3.89543 10.8954 3 12 3C13.1046 3 14 3.89543 14 5C14 6.10457 13.1046 7 12 7C10.8954 7 10 6.10457 10 5ZM10 12C10 10.8954 10.8954 10 12 10C13.1046 10 14 10.8954 14 12C14 13.1046 13.1046 14 12 14C10.8954 14 10 13.1046 10 12ZM12 17C10.8954 17 10 17.8954 10 19C10 20.1046 10.8954 21 12 21C13.1046 21 14 20.1046 14 19C14 17.8954 13.1046 17 12 17Z"
    />
  </symbol>
  <symbol id="move" viewBox="0 0 24 24">
    <path
      fill-rule="evenodd"
      clip-rule="evenodd"
      d="M12.7071 1.29289C12.3166 0.902369 11.6834 0.902369 11.2929 1.29289L8.29289 4.29289C7.90237 4.68342 7.90237 5.31658 8.29289 5.70711C8.68342 6.09763 9.31658 6.09763 9.70711 5.70711L12 3.41421L14.2929 5.70711C14.6834 6.09763 15.3166 6.09763 15.7071 5.70711C16.0976 5.31658 16.0976 4.68342 15.7071 4.29289L12.7071 1.29289ZM5.70711 9.70711C6.09763 9.31658 6.09763 8.68342 5.70711 8.29289C5.31658 7.90237 4.68342 7.90237 4.29289 8.29289L1.29289 11.2929C0.902369 11.6834 0.902369 12.3166 1.29289 12.7071L4.29289 15.7071C4.68342 16.0976 5.31658 16.0976 5.70711 15.7071C6.09763 15.3166 6.09763 14.6834 5.70711 14.2929L3.41421 12L5.70711 9.70711ZM8.29289 18.2929C8.68342 17.9024 9.31658 17.9024 9.70711 18.2929L12 20.5858L14.2929 18.2929C14.6834 17.9024 15.3166 17.9024 15.7071 18.2929C16.0976 18.6834 16.0976 19.3166 15.7071 19.7071L12.7071 22.7071C12.3166 23.0976 11.6834 23.0976 11.2929 22.7071L8.29289 19.7071C7.90237 19.3166 7.90237 18.6834 8.29289 18.2929ZM19.7071 8.29289C19.3166 7.90237 18.6834 7.90237 18.2929 8.29289C17.9024 8.68342 17.9024 9.31658 18.2929 9.70711L20.5858 12L18.2929 14.2929C17.9024 14.6834 17.9024 15.3166 18.2929 15.7071C18.6834 16.0976 19.3166 16.0976 19.7071 15.7071L22.7071 12.7071C23.0976 12.3166 23.0976 11.6834 22.7071 11.2929L19.7071 8.29289Z"
    />
    <path
      fill-rule="evenodd"
      clip-rule="evenodd"
      d="M13 2C13 1.44772 12.5523 1 12 1C11.4477 1 11 1.44772 11 2V11H2C1.44772 11 1 11.4477 1 12C1 12.5523 1.44772 13 2 13H11V22C11 22.5523 11.4477 23 12 23C12.5523 23 13 22.5523 13 22V13H22C22.5523 13 23 12.5523 23 12C23 11.4477 22.5523 11 22 11H13V2Z"
    />
  </symbol>
  <symbol id="pie-chart" viewBox="0 0 24 24">
    <path
      fill-rule="evenodd"
      clip-rule="evenodd"
      d="M12 1C11.7348 1 11.4804 1.10536 11.2929 1.29289C11.1054 1.48043 11 1.73478 11 2V12C11 12.5523 11.4477 13 12 13H22C22.5523 13 23 12.5523 23 12C23 10.5555 22.7155 9.12506 22.1627 7.79048C21.6099 6.4559 20.7996 5.24327 19.7782 4.22183C18.7567 3.20038 17.5441 2.39013 16.2095 1.83733C14.8749 1.28452 13.4445 1 12 1ZM13 11V3.05573C13.8386 3.14949 14.6615 3.3609 15.4442 3.68508C16.5361 4.13738 17.5282 4.80031 18.364 5.63604C19.1997 6.47177 19.8626 7.46392 20.3149 8.55585C20.6391 9.33849 20.8505 10.1614 20.9443 11H13ZM8.39997 3.74656C8.90615 3.52567 9.13743 2.93625 8.91654 2.43007C8.69565 1.92388 8.10623 1.6926 7.60005 1.91349C5.95322 2.63214 4.5075 3.74327 3.3893 5.14973C2.27109 6.55618 1.51444 8.21515 1.1855 9.98159C0.856564 11.748 0.965348 13.5682 1.50235 15.2828C2.03934 16.9975 2.9882 18.5546 4.26597 19.8178C5.54374 21.0811 7.1115 22.0121 8.83221 22.5295C10.5529 23.0469 12.3742 23.1348 14.1367 22.7858C15.8993 22.4367 17.5495 21.6611 18.9431 20.5269C20.3367 19.3927 21.4312 17.9344 22.131 16.2795C22.3461 15.7708 22.1082 15.1841 21.5995 14.969C21.0908 14.7539 20.5041 14.9919 20.289 15.5006C19.7164 16.8546 18.8209 18.0478 17.6807 18.9757C16.5404 19.9037 15.1903 20.5382 13.7482 20.8239C12.3061 21.1095 10.8159 21.0375 9.4081 20.6142C8.00025 20.1909 6.71753 19.4291 5.67208 18.3955C4.62664 17.362 3.8503 16.088 3.41094 14.6851C2.97158 13.2822 2.88257 11.793 3.1517 10.3477C3.42084 8.90246 4.03991 7.54512 4.95481 6.39439C5.8697 5.24365 7.05256 4.33454 8.39997 3.74656Z"
    />
  </symbol>
  <symbol id="play-circle" viewBox="0 0 24 24">
    <path
      xmlns="http://www.w3.org/2000/svg"
      fill-rule="evenodd"
      clip-rule="evenodd"
      d="M3 12C3 7.02944 7.02944 3 12 3C16.9706 3 21 7.02944 21 12C21 16.9706 16.9706 21 12 21C7.02944 21 3 16.9706 3 12ZM12 1C5.92487 1 1 5.92487 1 12C1 18.0751 5.92487 23 12 23C18.0751 23 23 18.0751 23 12C23 5.92487 18.0751 1 12 1ZM10.5547 7.16795C10.2478 6.96338 9.8533 6.94431 9.52814 7.11833C9.20298 7.29235 9 7.63121 9 8V16C9 16.3688 9.20298 16.7077 9.52814 16.8817C9.8533 17.0557 10.2478 17.0366 10.5547 16.8321L16.5547 12.8321C16.8329 12.6466 17 12.3344 17 12C17 11.6656 16.8329 11.3534 16.5547 11.168L10.5547 7.16795ZM14.1972 12L11 14.1315V9.86852L14.1972 12Z"
    />
  </symbol>
  <symbol id="plus-circle" viewBox="0 0 24 24">
    <path
      fill-rule="evenodd"
      clip-rule="evenodd"
      d="M12 3C7.02944 3 3 7.02944 3 12C3 16.9706 7.02944 21 12 21C16.9706 21 21 16.9706 21 12C21 7.02944 16.9706 3 12 3ZM1 12C1 5.92487 5.92487 1 12 1C18.0751 1 23 5.92487 23 12C23 18.0751 18.0751 23 12 23C5.92487 23 1 18.0751 1 12ZM12 7C12.5523 7 13 7.44772 13 8V11H16C16.5523 11 17 11.4477 17 12C17 12.5523 16.5523 13 16 13H13V16C13 16.5523 12.5523 17 12 17C11.4477 17 11 16.5523 11 16V13H8C7.44772 13 7 12.5523 7 12C7 11.4477 7.44772 11 8 11H11V8C11 7.44772 11.4477 7 12 7Z"
    />
  </symbol>
  <symbol id="plus" viewBox="0 0 24 24">
    <path
      fill-rule="evenodd"
      clip-rule="evenodd"
      d="M12 4C12.5523 4 13 4.44772 13 5V19C13 19.5523 12.5523 20 12 20C11.4477 20 11 19.5523 11 19V5C11 4.44772 11.4477 4 12 4Z"
    />
    <path
      fill-rule="evenodd"
      clip-rule="evenodd"
      d="M4 12C4 11.4477 4.44772 11 5 11H19C19.5523 11 20 11.4477 20 12C20 12.5523 19.5523 13 19 13H5C4.44772 13 4 12.5523 4 12Z"
    />
  </symbol>
  <symbol id="refresh" viewBox="0 0 24 24">
    <path
      fill-rule="evenodd"
      clip-rule="evenodd"
      d="M23 3C23.5523 3 24 3.44772 24 4V10C24 10.5523 23.5523 11 23 11H17C16.4477 11 16 10.5523 16 10C16 9.44772 16.4477 9 17 9H22V4C22 3.44772 22.4477 3 23 3Z"
    />
    <path
      fill-rule="evenodd"
      clip-rule="evenodd"
      d="M1.57747e-07 14C1.57747e-07 13.4477 0.447715 13 1 13H7C7.55228 13 8 13.4477 8 14C8 14.5523 7.55228 15 7 15H2V20C2 20.5523 1.55228 21 1 21C0.447715 21 1.57747e-07 20.5523 1.57747e-07 20V14Z"
    />
    <path
      fill-rule="evenodd"
      clip-rule="evenodd"
      d="M14.2173 4.31503C12.9192 3.93953 11.547 3.89901 10.229 4.19724C8.91091 4.49547 7.68987 5.12273 6.6798 6.02049C5.66972 6.91825 4.90353 8.05726 4.45272 9.33123C4.26848 9.85188 3.69705 10.1246 3.1764 9.94035C2.65576 9.75611 2.38304 9.18469 2.56728 8.66404C3.1308 7.07158 4.08854 5.64782 5.35114 4.52561C6.61373 3.40341 8.14002 2.61933 9.7876 2.24655C11.4352 1.87376 13.1503 1.92442 14.7731 2.39379C16.3906 2.86166 17.8637 3.7304 19.0559 4.91932L23.6848 9.26888C24.0873 9.64707 24.1069 10.2799 23.7288 10.6824C23.3506 11.0849 22.7177 11.1046 22.3152 10.7264L17.6752 6.36639C17.6676 6.35923 17.6601 6.35196 17.6527 6.34456C16.6974 5.38875 15.5155 4.69053 14.2173 4.31503ZM0.271247 13.3129C0.649439 12.9104 1.2823 12.8907 1.68478 13.2689L6.32478 17.6289C6.33239 17.636 6.3399 17.6433 6.34728 17.6507C7.30262 18.6065 8.4845 19.3047 9.78267 19.6802C11.0808 20.0557 12.453 20.0963 13.771 19.798C15.0891 19.4998 16.3101 18.8725 17.3202 17.9748C18.3303 17.077 19.0965 15.938 19.5473 14.664C19.7315 14.1434 20.3029 13.8707 20.8236 14.0549C21.3442 14.2392 21.617 14.8106 21.4327 15.3312C20.8692 16.9237 19.9115 18.3474 18.6489 19.4697C17.3863 20.5919 15.86 21.3759 14.2124 21.7487C12.5648 22.1215 10.8497 22.0709 9.22695 21.6015C7.6094 21.1336 6.13627 20.2649 4.94411 19.0759L0.315224 14.7264C-0.0872557 14.3482 -0.106945 13.7153 0.271247 13.3129Z"
    />
  </symbol>
  <symbol id="settings" viewBox="0 0 24 24">
    <path
      fill-rule="evenodd"
      clip-rule="evenodd"
      d="M12 10C10.8954 10 10 10.8954 10 12C10 13.1046 10.8954 14 12 14C13.1046 14 14 13.1046 14 12C14 10.8954 13.1046 10 12 10ZM8 12C8 9.79086 9.79086 8 12 8C14.2091 8 16 9.79086 16 12C16 14.2091 14.2091 16 12 16C9.79086 16 8 14.2091 8 12Z"
    />
    <path
      fill-rule="evenodd"
      clip-rule="evenodd"
      d="M12 2C11.7348 2 11.4804 2.10536 11.2929 2.29289C11.1054 2.48043 11 2.73478 11 3V3.17399C10.9979 3.6908 10.8448 4.19572 10.5594 4.62661C10.2741 5.0575 9.86895 5.39555 9.39393 5.59914C9.30938 5.63538 9.22042 5.65969 9.12961 5.67157C8.69798 5.82272 8.23333 5.85998 7.781 5.77796C7.26 5.68349 6.77925 5.43512 6.40073 5.06486L6.39285 5.05715L6.33289 4.99711C6.24002 4.90413 6.12934 4.82998 6.00794 4.77965C5.88654 4.72933 5.75642 4.70343 5.625 4.70343C5.49358 4.70343 5.36346 4.72933 5.24206 4.77965C5.12066 4.82998 5.01037 4.90374 4.9175 4.99671L4.91671 4.9975C4.82374 5.09037 4.74998 5.20066 4.69965 5.32206C4.64933 5.44346 4.62343 5.57358 4.62343 5.705C4.62343 5.83642 4.64933 5.96654 4.69965 6.08794C4.74998 6.20934 4.82374 6.31963 4.91671 6.4125L4.98491 6.48069C5.35516 6.85921 5.60349 7.34 5.69796 7.861C5.79055 8.37163 5.73113 8.89797 5.52745 9.37478C5.34189 9.86133 5.01698 10.2827 4.59305 10.5859C4.16054 10.8952 3.64498 11.0673 3.11338 11.0797L3.09 11.08H3C2.73478 11.08 2.48043 11.1854 2.29289 11.3729C2.10536 11.5604 2 11.8148 2 12.08C2 12.3452 2.10536 12.5996 2.29289 12.7871C2.48043 12.9746 2.73478 13.08 3 13.08H3.17399C3.6908 13.0821 4.19572 13.2352 4.62661 13.5206C5.05601 13.8049 5.3932 14.2082 5.59701 14.6811C5.80908 15.1643 5.87211 15.6998 5.77796 16.219C5.68349 16.74 5.43512 17.2207 5.06486 17.5993L5.05715 17.6072L4.9971 17.6671C4.90413 17.76 4.82998 17.8707 4.77965 17.9921C4.72933 18.1135 4.70343 18.2436 4.70343 18.375C4.70343 18.5064 4.72933 18.6365 4.77965 18.7579C4.82998 18.8793 4.90374 18.9896 4.99671 19.0825L4.9975 19.0833C5.09037 19.1763 5.20066 19.25 5.32206 19.3003C5.44346 19.3507 5.57359 19.3766 5.705 19.3766C5.83641 19.3766 5.96654 19.3507 6.08794 19.3003C6.20934 19.25 6.31963 19.1763 6.4125 19.0833L6.48069 19.0151C6.85921 18.6448 7.34 18.3965 7.861 18.302C8.37163 18.2095 8.89796 18.2689 9.37477 18.4725C9.86132 18.6581 10.2827 18.983 10.5859 19.407C10.8952 19.8395 11.0673 20.355 11.0797 20.8866L11.08 20.91V21C11.08 21.2652 11.1854 21.5196 11.3729 21.7071C11.5604 21.8946 11.8148 22 12.08 22C12.3452 22 12.5996 21.8946 12.7871 21.7071C12.9746 21.5196 13.08 21.2652 13.08 21V20.83L13.08 20.826C13.0821 20.3092 13.2352 19.8043 13.5206 19.3734C13.805 18.944 14.2083 18.6067 14.6812 18.4029C15.1643 18.1909 15.6998 18.1279 16.219 18.222C16.74 18.3165 17.2207 18.5649 17.5993 18.9351L17.6071 18.9429L17.6671 19.0029C17.76 19.0959 17.8707 19.17 17.9921 19.2203C18.1135 19.2707 18.2436 19.2966 18.375 19.2966C18.5064 19.2966 18.6365 19.2707 18.7579 19.2203C18.8793 19.17 18.9896 19.0963 19.0825 19.0033L19.0833 19.0025C19.1763 18.9096 19.25 18.7993 19.3003 18.6779C19.3507 18.5565 19.3766 18.4264 19.3766 18.295C19.3766 18.1636 19.3507 18.0335 19.3003 17.9121C19.25 17.7907 19.1763 17.6804 19.0833 17.5875L19.0151 17.5193C18.6448 17.1408 18.3965 16.66 18.302 16.139C18.2079 15.6198 18.2709 15.0843 18.4829 14.6012C18.6867 14.1283 19.024 13.725 19.4534 13.4406C19.8843 13.1552 20.3892 13.0021 20.906 13L20.91 13L21 13C21.2652 13 21.5196 12.8946 21.7071 12.7071C21.8946 12.5196 22 12.2652 22 12C22 11.7348 21.8946 11.4804 21.7071 11.2929C21.5196 11.1054 21.2652 11 21 11H20.83L20.826 11C20.3092 10.9979 19.8043 10.8448 19.3734 10.5594C18.9425 10.2741 18.6045 9.86896 18.4009 9.39393C18.3646 9.30938 18.3403 9.22042 18.3284 9.12961C18.1773 8.69798 18.14 8.23332 18.222 7.781C18.3165 7.26 18.5649 6.77925 18.9351 6.40073L18.9428 6.39285L19.0029 6.3329C19.0959 6.24002 19.17 6.12934 19.2203 6.00794C19.2707 5.88654 19.2966 5.75641 19.2966 5.625C19.2966 5.49359 19.2707 5.36346 19.2203 5.24206C19.17 5.12066 19.0963 5.01037 19.0033 4.9175L19.0025 4.91671C18.9096 4.82374 18.7993 4.74998 18.6779 4.69965C18.5565 4.64933 18.4264 4.62343 18.295 4.62343C18.1636 4.62343 18.0335 4.64933 17.9121 4.69965C17.7907 4.74998 17.6804 4.82374 17.5875 4.91671L17.5193 4.98491C17.1408 5.35516 16.66 5.60349 16.139 5.69796C15.6198 5.79211 15.0843 5.72908 14.6011 5.51701C14.1282 5.3132 13.7249 4.97601 13.4406 4.54661C13.1552 4.11572 13.0021 3.6108 13 3.09399L13 3.09V3C13 2.73478 12.8946 2.48043 12.7071 2.29289C12.5196 2.10536 12.2652 2 12 2ZM19.4 15L20.3149 15.4038C20.2624 15.5226 20.2468 15.6544 20.27 15.7822C20.2929 15.9086 20.3527 16.0253 20.4419 16.1177L20.4967 16.1725C20.4966 16.1724 20.4968 16.1726 20.4967 16.1725C20.7755 16.451 20.997 16.7822 21.1479 17.1462C21.2989 17.5104 21.3766 17.9008 21.3766 18.295C21.3766 18.6892 21.2989 19.0796 21.1479 19.4438C20.9969 19.808 20.7756 20.1389 20.4967 20.4175L19.79 19.71L20.4975 20.4167C20.2189 20.6956 19.888 20.9169 19.5238 21.0679C19.1596 21.2189 18.7692 21.2966 18.375 21.2966C17.9808 21.2966 17.5904 21.2189 17.2262 21.0679C16.8622 20.917 16.5314 20.6959 16.2529 20.4171C16.2528 20.417 16.253 20.4172 16.2529 20.4171L16.1977 20.3619C16.1053 20.2727 15.9886 20.2129 15.8622 20.19C15.7344 20.1668 15.6026 20.1824 15.4838 20.2349L15.474 20.2392C15.3574 20.2891 15.258 20.372 15.1881 20.4777C15.1183 20.583 15.0808 20.7063 15.08 20.8325V21C15.08 21.7957 14.7639 22.5587 14.2013 23.1213C13.6387 23.6839 12.8757 24 12.08 24C11.2843 24 10.5213 23.6839 9.95868 23.1213C9.39607 22.5587 9.08 21.7957 9.08 21V20.9244C9.07526 20.7972 9.03327 20.6741 8.95914 20.5704C8.88326 20.4644 8.77723 20.3836 8.65482 20.3385C8.63505 20.3313 8.61551 20.3234 8.59624 20.3149C8.47742 20.2624 8.34561 20.2468 8.21782 20.27C8.09142 20.2929 7.97467 20.3527 7.8823 20.4419L7.8275 20.4967C7.82737 20.4968 7.82763 20.4966 7.8275 20.4967C7.54896 20.7755 7.21784 20.997 6.85382 21.1479C6.48963 21.2989 6.09925 21.3766 5.705 21.3766C5.31075 21.3766 4.92037 21.2989 4.55618 21.1479C4.19233 20.9971 3.86174 20.7761 3.58329 20.4975C3.30436 20.2189 3.08308 19.888 2.93211 19.5238C2.78113 19.1596 2.70343 18.7692 2.70343 18.375C2.70343 17.9808 2.78113 17.5904 2.93211 17.2262C3.08308 16.862 3.30436 16.5311 3.58329 16.2525L3.63811 16.1977C3.72728 16.1053 3.78713 15.9886 3.81005 15.8622C3.83322 15.7344 3.81758 15.6026 3.76514 15.4838L3.76081 15.474C3.71087 15.3574 3.62801 15.258 3.52232 15.1881C3.41704 15.1183 3.29374 15.0808 3.1675 15.08H3C2.20435 15.08 1.44129 14.7639 0.87868 14.2013C0.316071 13.6387 0 12.8756 0 12.08C0 11.2844 0.316071 10.5213 0.87868 9.95868C1.44129 9.39607 2.20435 9.08 3 9.08H3.07564C3.20283 9.07526 3.32591 9.03327 3.42955 8.95914C3.53564 8.88326 3.61644 8.77723 3.66146 8.65482C3.66874 8.63505 3.67663 8.61551 3.68514 8.59624C3.73758 8.47742 3.75322 8.34561 3.73005 8.21782C3.70713 8.09142 3.64728 7.97468 3.5581 7.88231L3.50329 7.8275C3.22436 7.54888 3.00308 7.21802 2.85211 6.85382C2.70113 6.48963 2.62343 6.09925 2.62343 5.705C2.62343 5.31075 2.70113 4.92037 2.85211 4.55618C3.00301 4.19216 3.22415 3.86143 3.50289 3.58289C3.78143 3.30415 4.11216 3.08301 4.47618 2.93211C4.84037 2.78113 5.23075 2.70343 5.625 2.70343C6.01925 2.70343 6.40963 2.78113 6.77382 2.93211C7.13802 3.08308 7.46888 3.30436 7.7475 3.58329L7.80231 3.6381C7.89468 3.72728 8.01142 3.78713 8.13782 3.81005C8.26561 3.83322 8.39742 3.81758 8.51624 3.76514C8.58027 3.73687 8.64693 3.71549 8.71507 3.70122C8.78479 3.6539 8.84498 3.59323 8.89195 3.52232C8.96167 3.41704 8.99921 3.29374 9 3.1675V3C9 2.20435 9.31607 1.44129 9.87868 0.87868C10.4413 0.316071 11.2044 0 12 0C12.7956 0 13.5587 0.316071 14.1213 0.87868C14.6839 1.44129 15 2.20435 15 3V3.0875C15.0008 3.21374 15.0383 3.33704 15.1081 3.44232C15.178 3.54801 15.2774 3.63092 15.3939 3.68086L15.4038 3.68508C15.5226 3.73752 15.6544 3.75322 15.7822 3.73005C15.9086 3.70713 16.0253 3.64728 16.1177 3.55811L16.1725 3.50329C16.4511 3.22436 16.782 3.00308 17.1462 2.85211C17.5104 2.70113 17.9008 2.62343 18.295 2.62343C18.6892 2.62343 19.0796 2.70113 19.4438 2.85211C19.808 3.00308 20.1389 3.22436 20.4175 3.50329C20.6961 3.78174 20.9171 4.11233 21.0679 4.47618C21.2189 4.84037 21.2966 5.23075 21.2966 5.625C21.2966 6.01925 21.2189 6.40963 21.0679 6.77382C20.917 7.13784 20.6959 7.46857 20.4171 7.7471C20.417 7.74724 20.4172 7.74697 20.4171 7.7471L20.3619 7.80231C20.2727 7.89468 20.2129 8.01142 20.19 8.13782C20.1668 8.26561 20.1824 8.39742 20.2349 8.51624C20.2631 8.58027 20.2845 8.64692 20.2988 8.71507C20.3461 8.78479 20.4068 8.84498 20.4777 8.89195C20.583 8.96167 20.7063 8.99921 20.8325 9H21C21.7957 9 22.5587 9.31607 23.1213 9.87868C23.6839 10.4413 24 11.2043 24 12C24 12.7957 23.6839 13.5587 23.1213 14.1213C22.5587 14.6839 21.7957 15 21 15H20.9125C20.7863 15.0008 20.663 15.0383 20.5577 15.1081C20.452 15.178 20.3691 15.2774 20.3191 15.3939L19.4 15Z"
    />
  </symbol>
  <symbol id="share" viewBox="0 0 24 24">
    <path
      fill-rule="evenodd"
      clip-rule="evenodd"
      d="M18 3C16.8954 3 16 3.89543 16 5C16 6.10457 16.8954 7 18 7C19.1046 7 20 6.10457 20 5C20 3.89543 19.1046 3 18 3ZM14 5C14 2.79086 15.7909 1 18 1C20.2091 1 22 2.79086 22 5C22 7.20914 20.2091 9 18 9C15.7909 9 14 7.20914 14 5Z"
    />
    <path
      fill-rule="evenodd"
      clip-rule="evenodd"
      d="M6 10C4.89543 10 4 10.8954 4 12C4 13.1046 4.89543 14 6 14C7.10457 14 8 13.1046 8 12C8 10.8954 7.10457 10 6 10ZM2 12C2 9.79086 3.79086 8 6 8C8.20914 8 10 9.79086 10 12C10 14.2091 8.20914 16 6 16C3.79086 16 2 14.2091 2 12Z"
    />
    <path
      fill-rule="evenodd"
      clip-rule="evenodd"
      d="M18 17C16.8954 17 16 17.8954 16 19C16 20.1046 16.8954 21 18 21C19.1046 21 20 20.1046 20 19C20 17.8954 19.1046 17 18 17ZM14 19C14 16.7909 15.7909 15 18 15C20.2091 15 22 16.7909 22 19C22 21.2091 20.2091 23 18 23C15.7909 23 14 21.2091 14 19Z"
    />
    <path
      fill-rule="evenodd"
      clip-rule="evenodd"
      d="M7.72599 13.0065C8.00406 12.5293 8.6163 12.3679 9.09348 12.646L15.9235 16.626C16.4007 16.9041 16.5621 17.5163 16.284 17.9935C16.0059 18.4707 15.3937 18.6321 14.9165 18.354L8.08652 14.374C7.60934 14.0959 7.44793 13.4837 7.72599 13.0065Z"
    />
    <path
      fill-rule="evenodd"
      clip-rule="evenodd"
      d="M16.2737 6.00597C16.5521 6.48297 16.391 7.09532 15.914 7.37369L9.09403 11.3537C8.61703 11.6321 8.00468 11.471 7.72631 10.994C7.44795 10.517 7.60897 9.90468 8.08597 9.62631L14.906 5.64631C15.383 5.36795 15.9953 5.52897 16.2737 6.00597Z"
    />
  </symbol>
  <symbol id="star" viewBox="0 0 24 24">
    <path
      xmlns="http://www.w3.org/2000/svg"
      fill-rule="evenodd"
      clip-rule="evenodd"
      d="M12 1C12.3806 1 12.7282 1.21607 12.8967 1.55738L15.7543 7.34647L22.1446 8.28051C22.5212 8.33555 22.8339 8.59956 22.9512 8.96157C23.0686 9.32358 22.9703 9.72083 22.6977 9.98636L18.0745 14.4894L19.1656 20.851C19.23 21.2261 19.0757 21.6053 18.7677 21.8291C18.4598 22.0528 18.0515 22.0823 17.7145 21.9051L12 18.8998L6.28545 21.9051C5.94853 22.0823 5.54024 22.0528 5.23226 21.8291C4.92429 21.6053 4.77004 21.2261 4.83439 20.851L5.92548 14.4894L1.30227 9.98636C1.02965 9.72083 0.931375 9.32358 1.04875 8.96157C1.16613 8.59956 1.47881 8.33555 1.85537 8.28051L8.24574 7.34647L11.1033 1.55738C11.2718 1.21607 11.6194 1 12 1ZM12 4.25925L9.80671 8.70262C9.66117 8.99747 9.37998 9.20193 9.05463 9.24949L4.14841 9.9666L7.69773 13.4236C7.93361 13.6534 8.04127 13.9845 7.98561 14.309L7.14818 19.1917L11.5345 16.8849C11.8259 16.7317 12.1741 16.7317 12.4655 16.8849L16.8518 19.1917L16.0144 14.309C15.9587 13.9845 16.0664 13.6534 16.3023 13.4236L19.8516 9.9666L14.9454 9.24949C14.62 9.20193 14.3388 8.99747 14.1933 8.70262L12 4.25925Z"
    />
  </symbol>
  <symbol id="status" viewBox="0 0 24 24">
    <path
      xmlns="http://www.w3.org/2000/svg"
      fill-rule="evenodd"
      clip-rule="evenodd"
      d="M4 17C3.44772 17 3 16.5523 3 16L3 8C3 7.44771 3.44772 7 4 7L20 7C20.5523 7 21 7.44772 21 8V16C21 16.5523 20.5523 17 20 17H4ZM1 16C1 17.6569 2.34315 19 4 19H20C21.6569 19 23 17.6569 23 16V8C23 6.34315 21.6569 5 20 5H4C2.34315 5 1 6.34315 1 8V16ZM6.33001 11.7475V13.2643C6.33001 13.6316 6.03227 13.9293 5.665 13.9293C5.29773 13.9293 5 13.6316 5 13.2643V10.6818C5 10.3331 5.28263 10.0505 5.63127 10.0505H5.89386C6.09748 10.0505 6.26254 10.2156 6.26254 10.4192V10.7655C6.26254 10.7779 6.27255 10.7879 6.28489 10.7879C6.29455 10.7879 6.30311 10.7816 6.30623 10.7725C6.38736 10.534 6.527 10.3464 6.72515 10.2096C6.92915 10.0699 7.16688 10 7.43834 10C7.70017 10 7.92746 10.0631 8.12021 10.1894C8.31457 10.314 8.46476 10.4857 8.57078 10.7045C8.6784 10.9234 8.73141 11.1734 8.7298 11.4545V13.2643C8.7298 13.6316 8.43207 13.9293 8.0648 13.9293C7.69753 13.9293 7.39979 13.6316 7.39979 13.2643V11.7475C7.4014 11.5556 7.35482 11.4049 7.26005 11.2955C7.16688 11.186 7.03677 11.1313 6.86972 11.1313C6.76049 11.1313 6.66492 11.1566 6.583 11.2071C6.50268 11.2559 6.44084 11.3266 6.39747 11.4192C6.3541 11.5101 6.33161 11.6195 6.33001 11.7475ZM11.1597 14C10.7646 14 10.424 13.9209 10.1381 13.7626C9.8538 13.6027 9.63454 13.3737 9.48034 13.0758C9.32774 12.7761 9.25144 12.4175 9.25144 12C9.25144 11.5993 9.32854 11.2492 9.48275 10.9495C9.63695 10.6498 9.8546 10.4167 10.1357 10.25C10.4168 10.0833 10.7485 10 11.1308 10C11.4103 10 11.6633 10.0455 11.8898 10.1364C12.1163 10.2273 12.3098 10.3594 12.4704 10.5328C12.6311 10.7045 12.7548 10.9133 12.8415 11.1591C12.9282 11.4049 12.9716 11.6818 12.9716 11.9899C12.9716 12.1684 12.8269 12.3131 12.6484 12.3131H10.5622V12.3737C10.5622 12.4983 10.5871 12.6094 10.6369 12.7071C10.6867 12.8047 10.7581 12.8813 10.8513 12.9369C10.9445 12.9924 11.0569 13.0202 11.1886 13.0202C11.2802 13.0202 11.3637 13.0067 11.4392 12.9798C11.5163 12.9529 11.5822 12.9141 11.6368 12.8636C11.734 12.7707 11.8471 12.6768 11.9817 12.6768H12.215C12.6127 12.6768 12.9262 13.0525 12.6838 13.3677L12.6752 13.3788C12.5194 13.5758 12.313 13.729 12.056 13.8384C11.8006 13.9461 11.5018 14 11.1597 14ZM10.6465 11.25C10.5935 11.3342 10.5654 11.4327 10.5622 11.5455H11.4395C11.6089 11.5455 11.756 11.3959 11.6657 11.2525C11.6143 11.1667 11.5444 11.1002 11.4561 11.053C11.3693 11.0042 11.2705 10.9798 11.1597 10.9798C11.0521 10.9798 10.9533 11.0042 10.8633 11.053C10.7734 11.1002 10.7011 11.1658 10.6465 11.25ZM13.9558 13.2269C14.054 13.6387 14.422 13.9293 14.8454 13.9293C15.265 13.9293 15.6308 13.6437 15.7326 13.2367L16.0751 11.8672C16.0778 11.8562 16.0877 11.8485 16.099 11.8485C16.1104 11.8485 16.1202 11.8562 16.123 11.8672L16.4655 13.2367C16.5673 13.6437 16.9331 13.9293 17.3527 13.9293C17.7761 13.9293 18.1441 13.6387 18.2423 13.2269L18.8146 10.8276C18.9092 10.4312 18.6086 10.0505 18.2011 10.0505C17.8942 10.0505 17.6318 10.2714 17.5796 10.5739L17.2677 12.3794C17.2663 12.3878 17.259 12.3939 17.2505 12.3939C17.2422 12.3939 17.2351 12.3881 17.2334 12.38L16.8767 10.6794C16.7998 10.3129 16.4766 10.0505 16.1022 10.0505C15.7249 10.0505 15.4001 10.3168 15.3262 10.6868L14.9839 12.4001C14.9822 12.4083 14.9751 12.4141 14.9668 12.4141C14.9583 12.4141 14.9511 12.4081 14.9496 12.3998L14.6215 10.5712C14.5674 10.2699 14.3052 10.0505 13.9991 10.0505C13.5905 10.0505 13.2891 10.4322 13.3839 10.8296L13.9558 13.2269Z"
    />
  </symbol>
  <symbol id="sub-list" viewBox="0 0 24 24">
    <path
      fill-rule="evenodd"
      clip-rule="evenodd"
      d="M6 10C6 9.44772 6.44772 9 7 9H21C21.5523 9 22 9.44772 22 10C22 10.5523 21.5523 11 21 11H7C6.44772 11 6 10.5523 6 10Z"
    />
    <path
      fill-rule="evenodd"
      clip-rule="evenodd"
      d="M2 6C2 5.44772 2.44772 5 3 5H21C21.5523 5 22 5.44772 22 6C22 6.55228 21.5523 7 21 7H3C2.44772 7 2 6.55228 2 6Z"
    />
    <path
      fill-rule="evenodd"
      clip-rule="evenodd"
      d="M6 14C6 13.4477 6.44772 13 7 13H21C21.5523 13 22 13.4477 22 14C22 14.5523 21.5523 15 21 15H7C6.44772 15 6 14.5523 6 14Z"
    />
    <path
      fill-rule="evenodd"
      clip-rule="evenodd"
      d="M6 18C6 17.4477 6.44772 17 7 17H21C21.5523 17 22 17.4477 22 18C22 18.5523 21.5523 19 21 19H7C6.44772 19 6 18.5523 6 18Z"
    />
  </symbol>
  <symbol id="sun" viewBox="0 0 24 24">
    <path
      fill-rule="evenodd"
      clip-rule="evenodd"
      d="M13 1C13 0.447715 12.5523 0 12 0C11.4477 0 11 0.447715 11 1V3C11 3.55228 11.4477 4 12 4C12.5523 4 13 3.55228 13 3V1ZM8 12C8 9.79086 9.79086 8 12 8C14.2091 8 16 9.79086 16 12C16 14.2091 14.2091 16 12 16C9.79086 16 8 14.2091 8 12ZM12 6C8.68629 6 6 8.68629 6 12C6 15.3137 8.68629 18 12 18C15.3137 18 18 15.3137 18 12C18 8.68629 15.3137 6 12 6ZM12 20C12.5523 20 13 20.4477 13 21V23C13 23.5523 12.5523 24 12 24C11.4477 24 11 23.5523 11 23V21C11 20.4477 11.4477 20 12 20ZM4.92711 3.51289C4.53658 3.12237 3.90342 3.12237 3.51289 3.51289C3.12237 3.90342 3.12237 4.53658 3.51289 4.92711L4.93289 6.34711C5.32342 6.73763 5.95658 6.73763 6.34711 6.34711C6.73763 5.95658 6.73763 5.32342 6.34711 4.93289L4.92711 3.51289ZM17.6529 17.6529C18.0434 17.2624 18.6766 17.2624 19.0671 17.6529L20.4871 19.0729C20.8776 19.4634 20.8776 20.0966 20.4871 20.4871C20.0966 20.8776 19.4634 20.8776 19.0729 20.4871L17.6529 19.0671C17.2624 18.6766 17.2624 18.0434 17.6529 17.6529ZM1 11C0.447715 11 0 11.4477 0 12C0 12.5523 0.447715 13 1 13H3C3.55228 13 4 12.5523 4 12C4 11.4477 3.55228 11 3 11H1ZM20 12C20 11.4477 20.4477 11 21 11H23C23.5523 11 24 11.4477 24 12C24 12.5523 23.5523 13 23 13H21C20.4477 13 20 12.5523 20 12ZM6.34711 19.0671C6.73763 18.6766 6.73763 18.0434 6.34711 17.6529C5.95658 17.2624 5.32342 17.2624 4.93289 17.6529L3.51289 19.0729C3.12237 19.4634 3.12237 20.0966 3.51289 20.4871C3.90342 20.8776 4.53658 20.8776 4.92711 20.4871L6.34711 19.0671ZM20.4871 4.92708C20.8776 4.53655 20.8776 3.90339 20.4871 3.51286C20.0966 3.12234 19.4634 3.12234 19.0729 3.51286L17.6529 4.93286C17.2624 5.32339 17.2624 5.95655 17.6529 6.34708C18.0434 6.7376 18.6766 6.7376 19.0671 6.34708L20.4871 4.92708Z"
    />
  </symbol>
  <symbol id="text" viewBox="0 0 24 24">
    <path
      fill-rule="evenodd"
      clip-rule="evenodd"
      d="M3 4C3 3.44772 3.44772 3 4 3H20C20.5523 3 21 3.44772 21 4V7C21 7.55228 20.5523 8 20 8C19.4477 8 19 7.55228 19 7V5H5V7C5 7.55228 4.55228 8 4 8C3.44772 8 3 7.55228 3 7V4Z"
    />
    <path
      fill-rule="evenodd"
      clip-rule="evenodd"
      d="M8 20C8 19.4477 8.44772 19 9 19H15C15.5523 19 16 19.4477 16 20C16 20.5523 15.5523 21 15 21H9C8.44772 21 8 20.5523 8 20Z"
    />
    <path
      fill-rule="evenodd"
      clip-rule="evenodd"
      d="M12 3C12.5523 3 13 3.44772 13 4V20C13 20.5523 12.5523 21 12 21C11.4477 21 11 20.5523 11 20V4C11 3.44772 11.4477 3 12 3Z"
    />
  </symbol>
  <symbol id="theme" viewBox="0 0 24 24">
    <path
      id="icon/image/color_lens_24px_2"
      fill-rule="evenodd"
      clip-rule="evenodd"
      d="M2 12C2 17.51 6.48999 22 12 22C13.38 22 14.5 20.88 14.5 19.5C14.5 18.89 14.27 18.3 13.86 17.83C13.78 17.73 13.73 17.62 13.73 17.5C13.73 17.22 13.95 17 14.23 17H16C19.31 17 22 14.31 22 11C22 6.04001 17.51 2 12 2C6.48999 2 2 6.48999 2 12ZM4 12C4 7.59 7.59003 4 12 4C16.41 4 20 7.14001 20 11C20 13.21 18.21 15 16 15H14.23C12.85 15 11.73 16.12 11.73 17.5C11.73 18.1 11.95 18.69 12.36 19.15C12.42 19.22 12.5 19.34 12.5 19.5C12.5 19.78 12.28 20 12 20C7.59003 20 4 16.41 4 12ZM6.5 10C5.67157 10 5 10.6716 5 11.5C5 12.3284 5.67157 13 6.5 13C7.32843 13 8 12.3284 8 11.5C8 10.6716 7.32843 10 6.5 10ZM8 7.5C8 6.67157 8.67157 6 9.5 6C10.3284 6 11 6.67157 11 7.5C11 8.32843 10.3284 9 9.5 9C8.67157 9 8 8.32843 8 7.5ZM14.5 6C13.6716 6 13 6.67157 13 7.5C13 8.32843 13.6716 9 14.5 9C15.3284 9 16 8.32843 16 7.5C16 6.67157 15.3284 6 14.5 6ZM16 11.5C16 10.6716 16.6716 10 17.5 10C18.3284 10 19 10.6716 19 11.5C19 12.3284 18.3284 13 17.5 13C16.6716 13 16 12.3284 16 11.5Z"
    />
  </symbol>
  <symbol id="trash" viewBox="0 0 24 24">
    <path
      fill-rule="evenodd"
      clip-rule="evenodd"
      d="M2 6C2 5.44772 2.44772 5 3 5H21C21.5523 5 22 5.44772 22 6C22 6.55228 21.5523 7 21 7H3C2.44772 7 2 6.55228 2 6Z"
    />
    <path
      fill-rule="evenodd"
      clip-rule="evenodd"
      d="M10 3C9.73478 3 9.48043 3.10536 9.29289 3.29289C9.10536 3.48043 9 3.73478 9 4V5H15V4C15 3.73478 14.8946 3.48043 14.7071 3.29289C14.5196 3.10536 14.2652 3 14 3H10ZM17 5V4C17 3.20435 16.6839 2.44129 16.1213 1.87868C15.5587 1.31607 14.7956 1 14 1H10C9.20435 1 8.44129 1.31607 7.87868 1.87868C7.31607 2.44129 7 3.20435 7 4V5H5C4.44772 5 4 5.44772 4 6V20C4 20.7957 4.31607 21.5587 4.87868 22.1213C5.44129 22.6839 6.20435 23 7 23H17C17.7957 23 18.5587 22.6839 19.1213 22.1213C19.6839 21.5587 20 20.7957 20 20V6C20 5.44772 19.5523 5 19 5H17ZM6 7V20C6 20.2652 6.10536 20.5196 6.29289 20.7071C6.48043 20.8946 6.73478 21 7 21H17C17.2652 21 17.5196 20.8946 17.7071 20.7071C17.8946 20.5196 18 20.2652 18 20V7H6Z"
    />
    <path
      fill-rule="evenodd"
      clip-rule="evenodd"
      d="M10 10C10.5523 10 11 10.4477 11 11V17C11 17.5523 10.5523 18 10 18C9.44772 18 9 17.5523 9 17V11C9 10.4477 9.44772 10 10 10Z"
    />
    <path
      fill-rule="evenodd"
      clip-rule="evenodd"
      d="M14 10C14.5523 10 15 10.4477 15 11V17C15 17.5523 14.5523 18 14 18C13.4477 18 13 17.5523 13 17V11C13 10.4477 13.4477 10 14 10Z"
    />
  </symbol>
  <symbol id="user" viewBox="0 0 24 24">
    <path
      fill-rule="evenodd"
      clip-rule="evenodd"
      d="M4.46447 15.4645C5.40215 14.5268 6.67392 14 8 14H16C17.3261 14 18.5979 14.5268 19.5355 15.4645C20.4732 16.4021 21 17.6739 21 19V21C21 21.5523 20.5523 22 20 22C19.4477 22 19 21.5523 19 21V19C19 18.2044 18.6839 17.4413 18.1213 16.8787C17.5587 16.3161 16.7956 16 16 16H8C7.20435 16 6.44129 16.3161 5.87868 16.8787C5.31607 17.4413 5 18.2044 5 19V21C5 21.5523 4.55228 22 4 22C3.44772 22 3 21.5523 3 21V19C3 17.6739 3.52678 16.4021 4.46447 15.4645Z"
    />
    <path
      fill-rule="evenodd"
      clip-rule="evenodd"
      d="M12 4C10.3431 4 9 5.34315 9 7C9 8.65685 10.3431 10 12 10C13.6569 10 15 8.65685 15 7C15 5.34315 13.6569 4 12 4ZM7 7C7 4.23858 9.23858 2 12 2C14.7614 2 17 4.23858 17 7C17 9.76142 14.7614 12 12 12C9.23858 12 7 9.76142 7 7Z"
    />
  </symbol>
  <symbol id="users" viewBox="0 0 24 24">
    <path
      fill-rule="evenodd"
      clip-rule="evenodd"
      d="M6 7C6 5.34315 7.34315 4 9 4C10.6569 4 12 5.34315 12 7C12 8.65685 10.6569 10 9 10C7.34315 10 6 8.65685 6 7ZM9 2C6.23858 2 4 4.23858 4 7C4 9.76142 6.23858 12 9 12C11.7614 12 14 9.76142 14 7C14 4.23858 11.7614 2 9 2ZM5 14C3.67392 14 2.40215 14.5268 1.46447 15.4645C0.526784 16.4021 0 17.6739 0 19V21C0 21.5523 0.447715 22 1 22C1.55228 22 2 21.5523 2 21V19C2 18.2043 2.31607 17.4413 2.87868 16.8787C3.44129 16.3161 4.20435 16 5 16H13C13.7956 16 14.5587 16.3161 15.1213 16.8787C15.6839 17.4413 16 18.2043 16 19V21C16 21.5523 16.4477 22 17 22C17.5523 22 18 21.5523 18 21V19C18 17.6739 17.4732 16.4021 16.5355 15.4645C15.5979 14.5268 14.3261 14 13 14H5ZM19.0318 14.88C19.1698 14.3453 19.7153 14.0237 20.25 14.1618C21.3227 14.4387 22.273 15.0641 22.9517 15.9397C23.6304 16.8152 23.9992 17.8914 24 18.9993V21C24 21.5523 23.5523 22 23 22C22.4477 22 22 21.5523 22 21V19.0007C21.9994 18.3361 21.7782 17.6902 21.371 17.165C20.9638 16.6396 20.3936 16.2644 19.75 16.0982C19.2153 15.9602 18.8937 15.4148 19.0318 14.88ZM16.248 2.16125C15.713 2.02426 15.1682 2.34694 15.0312 2.88196C14.8943 3.41699 15.2169 3.96176 15.752 4.09875C16.3973 4.26398 16.9692 4.63928 17.3777 5.16548C17.7861 5.69169 18.0078 6.33887 18.0078 7.005C18.0078 7.67113 17.7861 8.31831 17.3777 8.84452C16.9692 9.37073 16.3973 9.74603 15.752 9.91125C15.2169 10.0482 14.8943 10.593 15.0312 11.128C15.1682 11.6631 15.713 11.9857 16.248 11.8488C17.3236 11.5734 18.2768 10.9479 18.9576 10.0709C19.6383 9.19385 20.0078 8.11521 20.0078 7.005C20.0078 5.89479 19.6383 4.81615 18.9576 3.93914C18.2768 3.06213 17.3236 2.43663 16.248 2.16125Z"
    />
  </symbol>  
  <symbol id="home" viewBox="0 0 24 24">
    <path
      fill-rule="evenodd"
      clip-rule="evenodd"
      d="M11.3861 1.21065C11.7472 0.929784 12.2528 0.929784 12.6139 1.21065L21.6139 8.21065C21.8575 8.4001 22 8.69141 22 9V20C22 20.7957 21.6839 21.5587 21.1213 22.1213C20.5587 22.6839 19.7957 23 19 23H5C4.20435 23 3.44129 22.6839 2.87868 22.1213C2.31607 21.5587 2 20.7957 2 20V9C2 8.69141 2.14247 8.4001 2.38606 8.21065L11.3861 1.21065ZM4 9.48908V20C4 20.2652 4.10536 20.5196 4.29289 20.7071C4.48043 20.8946 4.73478 21 5 21H19C19.2652 21 19.5196 20.8946 19.7071 20.7071C19.8946 20.5196 20 20.2652 20 20V9.48908L12 3.26686L4 9.48908Z"
    />
    <path
      fill-rule="evenodd"
      clip-rule="evenodd"
      d="M8 12C8 11.4477 8.44772 11 9 11H15C15.5523 11 16 11.4477 16 12V22C16 22.5523 15.5523 23 15 23C14.4477 23 14 22.5523 14 22V13H10V22C10 22.5523 9.55228 23 9 23C8.44772 23 8 22.5523 8 22V12Z"
    />
  </symbol>  
  <symbol id="image" viewBox="0 0 24 24">
    <path
      fill-rule="evenodd"
      clip-rule="evenodd"
      d="M5 4C4.44772 4 4 4.44772 4 5V19C4 19.5523 4.44772 20 5 20H19C19.5523 20 20 19.5523 20 19V5C20 4.44772 19.5523 4 19 4H5ZM2 5C2 3.34315 3.34315 2 5 2H19C20.6569 2 22 3.34315 22 5V19C22 20.6569 20.6569 22 19 22H5C3.34315 22 2 20.6569 2 19V5Z"
    />
    <path
      fill-rule="evenodd"
      clip-rule="evenodd"
      d="M8.5 8C8.22386 8 8 8.22386 8 8.5C8 8.77614 8.22386 9 8.5 9C8.77614 9 9 8.77614 9 8.5C9 8.22386 8.77614 8 8.5 8ZM6 8.5C6 7.11929 7.11929 6 8.5 6C9.88071 6 11 7.11929 11 8.5C11 9.88071 9.88071 11 8.5 11C7.11929 11 6 9.88071 6 8.5Z"
    />
    <path
      fill-rule="evenodd"
      clip-rule="evenodd"
      d="M15.2929 9.29289C15.6834 8.90237 16.3166 8.90237 16.7071 9.29289L21.7071 14.2929C22.0976 14.6834 22.0976 15.3166 21.7071 15.7071C21.3166 16.0976 20.6834 16.0976 20.2929 15.7071L16 11.4142L5.70711 21.7071C5.31658 22.0976 4.68342 22.0976 4.29289 21.7071C3.90237 21.3166 3.90237 20.6834 4.29289 20.2929L15.2929 9.29289Z"
    />
  </symbol>
</svg>