<svg version="1.1" xmlns="http://www.w3.org/2000/svg" xmlns:xlink="http://www.w3.org/1999/xlink">
  <symbol id="alert-triangle" viewBox="0 0 24 24">
    <path
      fill-rule="evenodd"
      clip-rule="evenodd"
      d="M2.42469 20.6219C2.90543 20.9055 3.38616 21 3.86689 21H20.2118C20.9809 21 21.654 20.7164 22.1347 20.1493C22.7116 19.6766 23 18.9204 23 18.1642C23 17.6915 22.9039 17.2189 22.6154 16.7463L14.5391 3.41791C14.0584 2.75622 13.4815 2.28358 12.7123 2.09453C11.9432 1.90547 11.174 2 10.501 2.37811C10.1164 2.56716 9.82796 2.94527 9.53952 3.32338L1.36709 16.7463C0.597915 18.0697 1.07865 19.8657 2.42469 20.6219ZM11 12.9751C11 13.5246 11.4304 13.9701 11.9614 13.9701C12.4925 13.9701 12.9229 13.5246 12.9229 12.9751L12.9229 8.99497C12.9229 8.44544 12.4924 7.99995 11.9614 7.99995C11.4304 7.99995 11 8.44544 11 8.99497L11 12.9751ZM11.9614 15.9601C11.4304 15.9601 11 16.4056 11 16.9552C11 17.5047 11.4304 17.9502 11.9614 17.9502C12.4925 17.9502 12.9229 17.5047 12.9229 16.9552C12.9229 16.4056 12.4925 15.9601 11.9614 15.9601Z"
    />
  </symbol>
  <symbol id="check-circle" viewBox="0 0 24 24">
    <path
      fill-rule="evenodd"
      clip-rule="evenodd"
      d="M12 1C5.92487 1 1 5.92487 1 12C1 18.0751 5.92487 23 12 23C18.0751 23 23 18.0751 23 12C23 5.92487 18.0751 1 12 1ZM17.3107 9.45718C17.7012 9.06666 17.7012 8.43349 17.3107 8.04297C16.9201 7.65244 16.287 7.65244 15.8965 8.04297L10.3965 13.8359L8.10356 11.543C7.71304 11.1524 7.07987 11.1524 6.68935 11.543C6.29882 11.9335 6.29882 12.5667 6.68935 12.9572L9.68935 15.9572C10.0799 16.3477 10.713 16.3477 11.1036 15.9572L17.3107 9.45718Z"
    />
  </symbol>
  <symbol id="info-circle" viewBox="0 0 24 24">
    <path
      fill-rule="evenodd"
      clip-rule="evenodd"
      d="M12 1C5.92487 1 1 5.92487 1 12C1 18.0751 5.92487 23 12 23C18.0751 23 23 18.0751 23 12C23 5.92487 18.0751 1 12 1ZM12 9C12.5523 9 13 8.55228 13 8C13 7.44772 12.5523 7 12 7C11.4477 7 11 7.44772 11 8C11 8.55228 11.4477 9 12 9ZM13 12C13 11.4477 12.5523 11 12 11C11.4477 11 11 11.4477 11 12V16C11 16.5523 11.4477 17 12 17C12.5523 17 13 16.5523 13 16V12Z"
    />
  </symbol>
  <symbol id="star" viewBox="0 0 24 24">
    <path
      xmlns="http://www.w3.org/2000/svg"
      fill-rule="evenodd"
      clip-rule="evenodd"
      d="M12 1C12.3806 1 12.7283 1.21607 12.8967 1.55738L15.7543 7.34647L22.1447 8.28051C22.5212 8.33555 22.8339 8.59956 22.9513 8.96157C23.0687 9.32358 22.9704 9.72083 22.6978 9.98636L18.0746 14.4894L19.1656 20.851C19.23 21.2261 19.0757 21.6053 18.7678 21.8291C18.4598 22.0528 18.0515 22.0823 17.7146 21.9051L12 18.8998L6.28548 21.9051C5.94856 22.0823 5.54027 22.0528 5.2323 21.8291C4.92432 21.6053 4.77007 21.2261 4.83442 20.851L5.92551 14.4894L1.3023 9.98636C1.02968 9.72083 0.931405 9.32358 1.04878 8.96157C1.16616 8.59956 1.47884 8.33555 1.8554 8.28051L8.24577 7.34647L11.1033 1.55738C11.2718 1.21607 11.6194 1 12 1Z"
    />
  </symbol>
  <symbol id="telegram" viewBox="0 0 24 24">
    <path
      xmlns="http://www.w3.org/2000/svg"
      d="M12 2C6.47548 2 2 6.47613 2 12C2 17.5239 6.47613 22 12 22C17.5245 22 22 17.5239 22 12C22 6.47613 17.5239 2 12 2ZM16.9116 8.85097L15.2703 16.5852C15.149 17.1335 14.8226 17.2665 14.3671 17.0084L11.8671 15.1658L10.6613 16.3271C10.5284 16.46 10.4155 16.5729 10.1574 16.5729L10.3348 14.0284L14.9677 9.84258C15.1697 9.66516 14.9232 9.56452 14.6568 9.74194L8.93097 13.3465L6.46323 12.5761C5.9271 12.4071 5.91484 12.04 6.57613 11.7819L16.2174 8.06387C16.6652 7.90258 17.0561 8.1729 16.911 8.85032L16.9116 8.85097Z"
    />
  </symbol>
  <symbol id="whatsapp" viewBox="0 0 24 24">
    <path
      xmlns="http://www.w3.org/2000/svg"
      d="M2.00401 22L3.35601 17.032C2.46515 15.5048 1.99711 13.768 2.00001 12C2.00001 6.477 6.47701 2 12 2C17.523 2 22 6.477 22 12C22 17.523 17.523 22 12 22C10.2328 22.0028 8.49667 21.5352 6.97001 20.645L2.00401 22ZM8.39101 7.308C8.26187 7.31601 8.13568 7.35003 8.02001 7.408C7.91153 7.46943 7.81251 7.54622 7.72601 7.636C7.60601 7.749 7.53801 7.847 7.46501 7.942C7.09542 8.42299 6.89662 9.01341 6.90001 9.62C6.90201 10.11 7.03001 10.587 7.23001 11.033C7.63901 11.935 8.31201 12.89 9.20101 13.775C9.41501 13.988 9.62401 14.202 9.84901 14.401C10.9524 15.3725 12.2673 16.073 13.689 16.447L14.258 16.534C14.443 16.544 14.628 16.53 14.814 16.521C15.1052 16.506 15.3896 16.4271 15.647 16.29C15.778 16.2225 15.9058 16.1491 16.03 16.07C16.03 16.07 16.073 16.042 16.155 15.98C16.29 15.88 16.373 15.809 16.485 15.692C16.568 15.606 16.64 15.505 16.695 15.39C16.773 15.227 16.851 14.916 16.883 14.657C16.907 14.459 16.9 14.351 16.897 14.284C16.893 14.177 16.804 14.066 16.707 14.019L16.125 13.758C16.125 13.758 15.255 13.379 14.724 13.137C14.668 13.1126 14.608 13.0987 14.547 13.096C14.4786 13.089 14.4095 13.0967 14.3443 13.1186C14.2791 13.1405 14.2193 13.1761 14.169 13.223V13.221C14.164 13.221 14.097 13.278 13.374 14.154C13.3325 14.2098 13.2753 14.2519 13.2098 14.275C13.1443 14.2982 13.0733 14.3013 13.006 14.284C12.9408 14.2666 12.877 14.2445 12.815 14.218C12.691 14.166 12.648 14.146 12.563 14.109L12.558 14.107C11.9859 13.8572 11.4562 13.5198 10.988 13.107C10.862 12.997 10.745 12.877 10.625 12.761C10.2316 12.3842 9.88872 11.958 9.60501 11.493L9.54601 11.398C9.50363 11.3342 9.46937 11.2653 9.44401 11.193C9.40601 11.046 9.50501 10.928 9.50501 10.928C9.50501 10.928 9.74801 10.662 9.86101 10.518C9.9551 10.3983 10.0429 10.2738 10.124 10.145C10.242 9.955 10.279 9.75999 10.217 9.609C9.93701 8.925 9.64701 8.244 9.34901 7.568C9.29001 7.434 9.11501 7.338 8.95601 7.319C8.90201 7.313 8.84801 7.307 8.79401 7.303C8.65972 7.29632 8.52514 7.29866 8.39101 7.308Z"
    />
  </symbol>
</svg>