<svg width="24" height="24" viewBox="0 0 24 24" fill="none" xmlns="http://www.w3.org/2000/svg">
<g clip-path="url(#clip0_69_302)">
<path d="M11.6667 11.9998C11.6667 11.1158 12.0179 10.2679 12.6431 9.64281C13.2682 9.01769 14.116 8.6665 15.0001 8.6665C15.8841 8.6665 16.732 9.01769 17.3571 9.64281C17.9822 10.2679 18.3334 11.1158 18.3334 11.9998C18.3334 12.8839 17.9822 13.7317 17.3571 14.3569C16.732 14.982 15.8841 15.3332 15.0001 15.3332C14.116 15.3332 13.2682 14.982 12.6431 14.3569C12.0179 13.7317 11.6667 12.8839 11.6667 11.9998V11.9998Z" fill="#1ABCFE"/>
<path d="M5 18.6668C5 17.7828 5.35119 16.9349 5.97631 16.3098C6.60143 15.6847 7.44928 15.3335 8.33333 15.3335H11.6667V18.6668C11.6667 19.5509 11.3155 20.3987 10.6904 21.0239C10.0652 21.649 9.21739 22.0002 8.33333 22.0002C7.44928 22.0002 6.60143 21.649 5.97631 21.0239C5.35119 20.3987 5 19.5509 5 18.6668V18.6668Z" fill="#0ACF83"/>
<path d="M11.6667 2V8.66667H15.0001C15.8841 8.66667 16.732 8.31548 17.3571 7.69036C17.9822 7.06523 18.3334 6.21739 18.3334 5.33333C18.3334 4.44928 17.9822 3.60143 17.3571 2.97631C16.732 2.35119 15.8841 2 15.0001 2L11.6667 2Z" fill="#FF7262"/>
<path d="M5 5.33333C5 6.21739 5.35119 7.06523 5.97631 7.69036C6.60143 8.31548 7.44928 8.66667 8.33333 8.66667H11.6667V2H8.33333C7.44928 2 6.60143 2.35119 5.97631 2.97631C5.35119 3.60143 5 4.44928 5 5.33333V5.33333Z" fill="#F24E1E"/>
<path d="M5 11.9998C5 12.8839 5.35119 13.7317 5.97631 14.3569C6.60143 14.982 7.44928 15.3332 8.33333 15.3332H11.6667V8.6665H8.33333C7.44928 8.6665 6.60143 9.01769 5.97631 9.64281C5.35119 10.2679 5 11.1158 5 11.9998V11.9998Z" fill="#A259FF"/>
</g>
<defs>
<clipPath id="clip0_69_302">
<rect width="13.3333" height="20" fill="white" transform="translate(5 2)"/>
</clipPath>
</defs>
</svg>
