<svg width="24" height="24" viewBox="0 0 24 24" fill="none" xmlns="http://www.w3.org/2000/svg">
<g clip-path="url(#clip0_70_365)">
<path d="M11.9613 2.27344C6.46055 2.27344 2 6.7332 2 12.2348C2 16.636 4.85422 20.3699 8.81219 21.6871C9.31 21.7793 9.49281 21.471 9.49281 21.2079C9.49281 20.9704 9.48352 20.1856 9.4793 19.3533C6.70797 19.9559 6.1232 18.178 6.1232 18.178C5.67008 17.0266 5.01719 16.7205 5.01719 16.7205C4.11344 16.1022 5.08531 16.1148 5.08531 16.1148C6.08563 16.1852 6.61234 17.1414 6.61234 17.1414C7.50078 18.6643 8.94266 18.224 9.51109 17.9695C9.60047 17.3256 9.85867 16.8863 10.1435 16.6375C7.93102 16.3855 5.60508 15.5314 5.60508 11.7145C5.60508 10.627 5.99422 9.73836 6.63148 9.04078C6.52805 8.78984 6.18711 7.77672 6.72797 6.40461C6.72797 6.40461 7.56445 6.13687 9.46805 7.4257C10.2626 7.20492 11.1148 7.0943 11.9613 7.09055C12.8079 7.0943 13.6607 7.20492 14.4568 7.4257C16.3581 6.13687 17.1934 6.40461 17.1934 6.40461C17.7356 7.77672 17.3945 8.78984 17.2911 9.04078C17.9298 9.73836 18.3163 10.627 18.3163 11.7145C18.3163 15.5405 15.9859 16.383 13.7678 16.6295C14.1251 16.9387 14.4434 17.5449 14.4434 18.4742C14.4434 19.807 14.4319 20.8798 14.4319 21.2079C14.4319 21.473 14.6112 21.7836 15.1162 21.6858C19.072 20.3671 21.9226 16.6345 21.9226 12.2348C21.9226 6.7332 17.4627 2.27344 11.9613 2.27344Z" fill="#333333"/>
<path d="M5.73091 16.4634C5.70904 16.5128 5.63107 16.5276 5.56021 16.4937C5.48794 16.4612 5.44732 16.3937 5.47076 16.3441C5.49224 16.2931 5.57021 16.2789 5.64232 16.3131C5.71474 16.3455 5.75599 16.4137 5.73091 16.4634ZM6.22091 16.9005C6.17341 16.9446 6.08052 16.9241 6.01747 16.8545C5.95232 16.7851 5.94013 16.6923 5.98833 16.6475C6.03732 16.6035 6.1274 16.6241 6.19271 16.6936C6.25787 16.7638 6.27052 16.8561 6.22083 16.9006M6.55708 17.4599C6.49599 17.5023 6.39615 17.4626 6.33451 17.374C6.27349 17.2855 6.27349 17.1792 6.33583 17.1366C6.39771 17.0941 6.49599 17.1323 6.55849 17.2202C6.61943 17.3103 6.61943 17.4166 6.55701 17.46M7.12552 18.1078C7.07091 18.168 6.95466 18.1519 6.86951 18.0697C6.78247 17.9894 6.75818 17.8754 6.81294 17.8151C6.86818 17.7548 6.98513 17.7718 7.07091 17.8533C7.1574 17.9334 7.18373 18.0483 7.12552 18.1078ZM7.86021 18.3266C7.83623 18.4045 7.72419 18.44 7.61138 18.4069C7.49872 18.3727 7.42498 18.2813 7.44771 18.2025C7.47115 18.124 7.58365 18.087 7.69732 18.1225C7.80982 18.1565 7.88365 18.2472 7.86021 18.3266ZM8.69646 18.4193C8.69927 18.5015 8.60357 18.5696 8.48513 18.5711C8.36599 18.5737 8.26966 18.5072 8.26841 18.4264C8.26841 18.3434 8.36193 18.2759 8.48099 18.274C8.59943 18.2716 8.69646 18.3376 8.69646 18.4193ZM9.51787 18.3878C9.53208 18.468 9.44974 18.5503 9.33216 18.5722C9.21654 18.5933 9.10951 18.5438 9.09474 18.4644C9.08037 18.3822 9.16427 18.2999 9.27966 18.2786C9.39747 18.2581 9.50287 18.3063 9.51787 18.3878Z" fill="#333333"/>
</g>
<defs>
<clipPath id="clip0_70_365">
<rect width="20" height="20" fill="white" transform="translate(2 2)"/>
</clipPath>
</defs>
</svg>
